<svg width="140" height="40" viewBox="0 0 140 40" fill="none" xmlns="http://www.w3.org/2000/svg">
<rect x="2" y="2" width="136" height="36" rx="6" stroke="url(#paint0_linear_54770_327)" stroke-width="4"/>
<path d="M46.1172 26.1016V28H35.6406V11.0898H46.1172V12.9883H37.75V18.4141H45.6836V20.2891H37.75V26.1016H46.1172ZM50.9922 28H48.9062V11.0898H50.957L60.2148 24.3672H60.3203V11.0898H62.4062V28H60.3555L51.0977 14.7695H50.9922V28ZM72.0742 28H69.9648V12.9883H64.6328V11.0898H77.4062V12.9883H72.0742V28ZM90.1094 26.1016V28H79.6328V11.0898H90.1094V12.9883H81.7422V18.4141H89.6758V20.2891H81.7422V26.1016H90.1094ZM95.0078 12.9648V19.4453H99.0508C101.219 19.4453 102.449 18.2734 102.449 16.1992C102.449 14.1719 101.137 12.9648 98.957 12.9648H95.0078ZM95.0078 21.3086V28H92.8984V11.0898H99.2383C102.496 11.0898 104.629 13.082 104.629 16.1289C104.629 18.4844 103.352 20.3125 101.23 20.9805L105.145 28H102.672L99.0508 21.3086H95.0078Z" fill="white"/>
<defs>
<linearGradient id="paint0_linear_54770_327" x1="0" y1="20" x2="140" y2="20" gradientUnits="userSpaceOnUse">
<stop stop-color="#003DD4"/>
<stop offset="0.73" stop-color="#5ABAD6"/>
<stop offset="1" stop-color="#C497FF"/>
</linearGradient>
</defs>
</svg>
