<svg width="343" height="343" viewBox="0 0 343 343" fill="none" xmlns="http://www.w3.org/2000/svg">
<g clip-path="url(#clip0_177_185)">
<path d="M143.621 142.311L144.195 137.266L148.312 134.639L143.834 132.783L142.539 127.742L139.353 131.674L134.311 131.127L136.914 135.604L134.847 140.279L139.894 138.958L143.621 142.311Z" fill="#B79833"/>
<path d="M154.315 125.282L154.516 120.238L159.006 117.611L154.341 115.568L153.233 110.714L150.047 114.645L145.004 114.098L147.608 118.575L145.541 123.251L150.588 121.93L154.315 125.282Z" fill="#B79833"/>
<path d="M176.479 80.3876C177.226 80.7593 178.16 80.5701 178.722 80.0081C179.098 79.2599 178.913 78.3264 178.354 77.7674L173.132 74.4185C172.386 74.0469 171.452 74.2361 170.89 74.7981C170.514 75.5463 170.699 76.48 171.257 77.039L176.479 80.3876Z" fill="#B79833"/>
<path d="M181.333 81.4956C180.958 82.2438 181.142 83.1775 181.701 83.7365L186.923 87.0851C187.669 87.4568 188.604 87.2676 189.166 86.7056C189.541 85.9574 189.357 85.0239 188.798 84.4649L183.576 81.1161C182.831 80.3708 181.896 80.56 181.333 81.4956Z" fill="#B79833"/>
<path d="M97.3057 207.259L101.219 210.798L101.607 205.566L105.91 203.126L101.245 201.084L100.137 196.229L96.9511 200.161L91.9084 199.614L94.5127 203.717L92.6318 208.579L97.3057 207.259Z" fill="#B79833"/>
<path d="M111.727 193.583L112.301 188.538L116.418 185.911L111.939 184.055L110.831 179.201L107.458 182.946L102.416 182.399L105.02 186.876L103.139 191.364L108 190.23L111.727 193.583Z" fill="#B79833"/>
<path d="M122.421 176.555L122.808 171.323L127.111 168.883L122.446 166.84L121.338 161.986L118.152 165.918L113.11 165.37L115.713 169.847L113.833 174.336L118.693 173.202L122.421 176.555Z" fill="#B79833"/>
<path d="M133.114 159.526L133.502 154.294L137.805 151.854L133.14 149.811L132.032 144.957L128.66 148.703L123.803 148.342L126.221 152.632L124.153 157.308L129.201 155.987L133.114 159.526Z" fill="#B79833"/>
<path d="M202.596 94.5163C202.22 95.2646 202.404 96.1981 202.963 96.757L208.185 100.106C208.931 100.478 209.866 100.288 210.428 99.7261C210.804 98.9779 210.619 98.0442 210.06 97.4852L204.839 94.1366C203.906 93.5786 202.971 93.7681 202.596 94.5163Z" fill="#B79833"/>
<path d="M191.965 88.0058C191.589 88.7541 191.773 89.6876 192.332 90.2465L197.554 93.5954C198.3 93.967 199.235 93.7776 199.797 93.2157C200.359 92.6537 199.988 91.5337 199.429 90.9747L194.207 87.6261C193.462 86.8808 192.34 87.2576 191.965 88.0058Z" fill="#B79833"/>
<path d="M267.787 97.1444L278.293 80.3034L242.297 58.1682L240.432 57.052L239.306 58.9232C238.743 59.8588 237.994 60.6081 237.245 61.3574C232.562 66.0402 225.461 66.8063 220.052 63.2713C216.882 61.2247 214.648 58.2415 213.724 54.6944C212.799 51.1474 213.556 47.4094 215.62 44.228L216.933 42.1694L179.071 18.9185L42.6728 238.415L66.3593 253.11L68.2243 254.226L62.2303 260.22L93.7183 291.708L95.4042 290.022C100.836 284.59 109.616 284.754 115.019 290.157C120.423 295.56 120.4 304.154 115.154 309.772L113.468 311.458L144.956 342.946L327.774 160.128L297.963 130.317L296.286 128.64L294.6 130.326C289.168 135.758 280.201 135.782 274.798 130.379C269.394 124.976 269.417 116.382 274.663 110.764L276.349 109.078L266.474 99.2031L266.849 98.4545L267.787 97.1444ZM271.427 133.377C278.134 140.085 288.595 140.43 295.895 134.993L321.049 160.146L288.831 192.364L288.458 191.991L320.301 160.148L296.08 135.927L292.713 137.43C285.418 140.999 276.828 139.527 271.052 133.752C265.463 128.162 263.805 119.386 267.374 112.091L268.877 108.724L244.656 84.5027L212.812 116.346L212.44 115.973L244.658 83.7554L269.811 108.908C264.374 116.209 264.906 126.856 271.427 133.377ZM119.634 311.255C125.071 303.955 124.537 293.681 118.016 287.16C111.495 280.639 101.035 279.92 93.9215 285.543L68.7684 260.39L210.565 118.594L210.937 118.966L69.5157 260.388L93.7372 284.609L97.1037 283.106C104.212 279.724 112.988 281.382 118.577 286.972C124.167 292.561 125.639 301.151 122.443 308.445L120.94 311.812L145.161 336.033L286.583 194.612L286.955 194.984L145.159 336.781L119.634 311.255ZM209.237 55.8274C210.345 60.6817 213.323 64.7836 217.426 67.3881C224.7 72.0391 234.043 70.8935 240.225 64.7122C240.787 64.1502 241.161 63.7755 241.723 63.2136L271.938 81.8147L264.433 93.7908L264.061 93.418L269.877 83.8751L271.003 82.0039L241.908 64.1472L238.913 66.3968C232.734 71.4573 223.952 72.0412 217.051 67.7628C210.151 63.4845 206.81 55.2734 208.512 47.6095L209.269 43.8712L180.173 26.0144L156.346 64.3749L155.973 64.0021L180.175 25.2673L210.39 43.8682C208.885 47.6085 208.314 51.9068 209.237 55.8274ZM214.986 71.6914C223.566 76.8994 234.403 76.1232 242.079 69.9379L242.454 69.5634L264.835 83.3279L260.707 90.0644L259.775 89.1328L263.152 83.8932L242.636 71.2443L241.326 72.1818C233.091 77.8082 222.442 78.0232 214.236 72.8142C205.842 67.7926 201.385 58.0902 202.719 48.1854L203.096 46.6898L182.581 34.0411L161.755 67.5362C161.195 67.3509 160.447 67.7266 160.259 68.2875C160.07 68.8485 159.882 69.4094 160.254 70.1557L57.8136 235.199L74.4127 245.43L73.4761 246.366L56.1307 235.764L182.397 32.7338L204.778 46.4986L204.777 46.8721C202.137 56.2199 206.406 66.4834 214.986 71.6914ZM165.848 73.8771C166.594 74.2487 167.529 74.0595 168.091 73.4976C168.466 72.7493 168.282 71.8158 167.723 71.2569L165.672 69.9545L183.871 40.5762L197.859 49.3192C196.895 60.3438 202.097 71.1651 211.61 76.9311C221.122 82.697 232.704 82.6663 242.246 77.2233L217.334 102.136L215.282 100.834C214.536 100.462 213.601 100.651 213.039 101.213C212.664 101.962 212.848 102.895 213.407 103.454L215.086 104.384L181.744 137.726L164.959 127.308L168.335 122.069L163.672 119.279L153.916 134.997L158.579 137.787L161.955 132.547L177.622 142.22L170.13 149.712L165.467 146.923L161.152 153.846L152.2 148.266L157.64 139.471L152.977 136.681L144.347 150.529L159.828 160.015L152.148 167.695L143.033 152.961L139.844 158.013L148.401 171.441L147.652 172.19L135.716 164.749L132.527 169.802L143.344 176.498L140.722 179.121L138.484 177.632C133.262 174.283 128.589 175.23 125.587 180.095C122.772 184.773 123.509 188.881 127.797 192.045L124.987 194.855L119.205 191.321L116.016 196.373L120.679 199.163L118.806 201.036L114.703 198.432L104.947 214.15L105.319 214.523L77.9717 241.871L64.3564 233.5L164.17 72.5737L165.848 73.8771ZM131.359 187.365C129.121 185.877 128.751 184.383 129.69 182.7C130.629 181.016 132.124 180.638 134.549 181.939L136.228 182.869L131.733 187.365L131.359 187.365ZM255.117 84.4749L256.796 85.4045L256.422 85.779L255.117 84.4749ZM154.658 66.8078L155.031 67.1806L49.5886 237.089L69.9183 249.551L69.5436 249.926L48.8413 237.091L154.658 66.8078ZM245.011 91.2271L263.643 109.859L263.455 110.42C259.134 119.585 260.787 130.229 267.867 137.31C274.947 144.39 285.777 146.229 294.757 141.722L295.318 141.533L313.949 160.165L144.806 329.309L126.174 310.677L126.362 310.116C130.496 301.138 128.656 290.308 121.763 283.414C114.869 276.52 104.039 274.681 95.0604 278.814L94.4994 279.003L75.8675 260.371L245.011 91.2271Z" fill="#B79833"/>
<path d="M125.598 246.415L127.105 241.554L131.966 240.046L127.864 237.068L127.877 232.211L123.759 235.211L119.093 233.542L120.575 238.395L117.575 242.513L122.619 242.313L125.598 246.415Z" fill="#B79833"/>
<path d="M139.833 232.179L141.341 227.318L146.202 225.81L141.913 223.02L142.113 217.975L137.995 220.975L133.329 219.306L134.811 224.159L131.811 228.277L136.855 228.077L139.833 232.179Z" fill="#B79833"/>
<path d="M151.091 213.841L154.069 217.943L155.577 213.082L160.438 211.575L156.148 208.784L156.349 203.74L152.231 206.739L147.565 205.071L149.046 209.924L146.046 214.042L151.091 213.841Z" fill="#B79833"/>
<path d="M160.283 199.806L165.327 199.606L168.305 203.707L169.812 198.846L174.674 197.339L170.384 194.548L170.585 189.504L166.467 192.503L161.801 190.835L163.282 195.688L160.283 199.806Z" fill="#B79833"/>
<path d="M179.563 185.37L182.353 189.659L183.861 184.798L188.909 183.103L184.62 180.312L184.82 175.268L180.702 178.268L175.849 176.786L177.518 181.452L174.518 185.57L179.563 185.37Z" fill="#B79833"/>
<path d="M191.754 167.216L188.754 171.334L193.798 171.134L196.589 175.423L198.096 170.562L202.958 169.055L198.856 166.077L199.056 161.032L194.938 164.032L190.085 162.551L191.754 167.216Z" fill="#B79833"/>
<path d="M166.426 277.878L161.76 276.209L163.242 281.062L160.242 285.18L165.286 284.98L168.265 289.082L169.772 284.221L174.633 282.713L170.531 279.735L170.544 274.878L166.426 277.878Z" fill="#B79833"/>
<path d="M180.662 263.642L175.996 261.973L177.478 266.826L174.478 270.944L179.522 270.744L182.5 274.846L184.008 269.985L188.869 268.477L184.58 265.687L184.78 260.642L180.662 263.642Z" fill="#B79833"/>
<path d="M194.898 249.406L190.232 247.737L191.713 252.591L188.713 256.709L193.758 256.508L196.736 260.61L198.243 255.749L203.105 254.242L198.815 251.451L199.015 246.406L194.898 249.406Z" fill="#B79833"/>
<path d="M209.134 235.17L204.468 233.501L205.949 238.355L202.949 242.472L207.994 242.273L210.972 246.374L212.479 241.513L217.341 240.006L213.051 237.215L213.252 232.17L209.134 235.17Z" fill="#B79833"/>
<path d="M223.369 220.935L218.516 219.453L220.185 224.119L217.185 228.237L222.23 228.037L225.02 232.326L226.528 227.465L231.576 225.77L227.287 222.979L227.487 217.934L223.369 220.935Z" fill="#B79833"/>
<path d="M237.605 206.699L232.752 205.217L234.421 209.883L231.421 214.001L236.465 213.801L239.256 218.09L240.764 213.229L245.625 211.722L241.523 208.744L241.723 203.699L237.605 206.699Z" fill="#B79833"/>
<path d="M131.741 254.432L136.049 250.123L159.153 273.227L163.461 268.919L140.357 245.815L144.853 241.32L141.127 237.593L128.015 250.705L131.741 254.432Z" fill="#B79833"/>
<path d="M143 235.72L147.308 231.412L174.138 258.242L169.83 262.55L143 235.72Z" fill="#B79833"/>
<path d="M182.976 236.361L179.436 232.821L175.503 236.754L179.415 240.667C181.279 242.53 181.087 244.212 179.776 245.523C178.465 246.834 176.783 247.026 174.92 245.163L160.387 230.63C158.524 228.766 158.715 227.084 160.026 225.773C161.337 224.462 163.019 224.271 164.882 226.134L167.677 228.929L171.611 224.995L169.002 222.387C164.717 218.101 160.047 217.927 155.926 222.048C151.805 226.169 151.98 230.839 156.265 235.124L170.239 249.098C174.524 253.383 179.194 253.558 183.315 249.437C187.622 245.502 187.448 240.832 182.976 236.361Z" fill="#B79833"/>
<path d="M186.932 224.207L201.673 230.707L206.168 226.211L185.269 217.3L179.339 199.381L175.03 203.69L181.149 221.047L169.411 209.309L165.29 213.43L192.12 240.26L196.241 236.139L188.043 227.941L186.932 224.207Z" fill="#B79833"/>
<path d="M215.928 208.998L208.623 216.303L200.612 208.292L206.418 202.485L202.692 198.759L196.885 204.565L189.246 196.926L196.551 189.621L192.825 185.895L181.212 197.508L208.041 224.338L219.655 212.725L215.928 208.998Z" fill="#B79833"/>
<path d="M207.435 171.284L194.136 184.583L197.863 188.31L202.358 183.814L225.462 206.918L229.77 202.61L206.666 179.506L211.162 175.011L207.435 171.284Z" fill="#B79833"/>
<path d="M77.7356 260.367L94.8768 277.508L96.1862 276.944C105.35 273.37 115.618 275.771 122.512 282.665C129.406 289.559 131.433 299.828 128.233 308.991L127.669 310.3L144.81 327.441L282.111 190.141C282.671 190.326 283.232 190.138 283.606 189.763C283.981 189.388 284.17 188.828 283.984 188.268L311.894 160.358L294.939 143.403L293.63 143.967C284.466 147.541 274.01 145.327 267.116 138.433C260.223 131.539 258.009 121.083 261.583 111.92L262.147 110.611L245.192 93.6557L217.469 121.378C216.909 121.193 216.348 121.381 215.974 121.756C215.599 122.131 215.411 122.691 215.596 123.251L78.1081 260.739L77.7356 260.367ZM244.989 99.4477L256.727 111.186C253.337 121.657 256.108 133.418 263.933 141.244C271.759 149.069 283.521 151.84 293.991 148.45L305.729 160.188L281.191 184.726L279.514 183.049C278.956 182.49 277.834 182.493 277.273 183.055C276.711 183.617 276.708 184.738 277.267 185.297L278.944 186.973L145.015 320.902L133.277 309.164C136.667 298.694 133.709 287.119 126.07 279.48C118.244 271.654 106.669 269.07 96.3854 272.273L84.6474 260.535L218.576 126.606L220.253 128.283C220.812 128.842 221.933 128.839 222.495 128.277C223.057 127.715 223.06 126.594 222.501 126.035L220.824 124.358L245.362 99.8205L244.989 99.4477Z" fill="#B79833"/>
<path d="M268.143 173.925C267.581 174.487 267.578 175.608 268.137 176.167L272.609 180.638C273.168 181.197 274.289 181.194 274.851 180.632C275.413 180.07 275.416 178.95 274.857 178.391L270.385 173.919C269.826 173.36 268.705 173.363 268.143 173.925Z" fill="#B79833"/>
<path d="M250.629 156.411C250.068 156.973 250.065 158.094 250.623 158.653L255.095 163.124C255.654 163.683 256.775 163.68 257.337 163.118C257.899 162.556 257.902 161.436 257.343 160.877L252.871 156.405C252.312 155.846 251.191 155.849 250.629 156.411Z" fill="#B79833"/>
<path d="M259.386 165.168C258.824 165.73 258.821 166.851 259.38 167.41L263.852 171.881C264.411 172.44 265.532 172.437 266.094 171.875C266.656 171.313 266.659 170.193 266.1 169.634L261.628 165.162C261.069 164.603 259.948 164.606 259.386 165.168Z" fill="#B79833"/>
<path d="M241.872 147.654C241.31 148.216 241.307 149.337 241.866 149.896L246.338 154.367C246.897 154.926 248.018 154.923 248.58 154.361C249.142 153.799 249.144 152.678 248.586 152.119L244.114 147.648C243.555 147.089 242.434 147.092 241.872 147.654Z" fill="#B79833"/>
<path d="M228.638 136.667C229.197 137.226 230.318 137.223 230.88 136.661C231.442 136.099 231.444 134.978 230.885 134.419L226.414 129.948C225.855 129.389 224.734 129.392 224.172 129.954C223.61 130.516 223.607 131.637 224.166 132.196L228.638 136.667Z" fill="#B79833"/>
<path d="M233.109 141.139L237.581 145.61C238.14 146.169 239.261 146.166 239.823 145.604C240.385 145.042 240.388 143.922 239.829 143.363L235.357 138.891C234.798 138.332 233.677 138.335 233.115 138.897C232.553 139.459 232.364 140.393 233.109 141.139Z" fill="#B79833"/>
</g>
<defs>
<clipPath id="clip0_177_185">
<rect width="280" height="205" fill="white" transform="translate(0 197.99) rotate(-45)"/>
</clipPath>
</defs>
</svg>
