<svg width="465" height="530" viewBox="0 0 465 530" fill="none" xmlns="http://www.w3.org/2000/svg">
<g clip-path="url(#clip0_12_20)">
<path d="M405.399 216.46C404.829 217.51 405.229 219.02 405.209 220.21C412.459 220.28 418.679 227.75 422.589 233.34C431.319 245.81 433.839 259.51 432.069 274.64C431.299 281.21 427.489 286.87 426.179 293.24C430.769 293.69 432.319 288.51 435.159 286.25L435.699 289.27C439.96 287.39 443.409 292.76 447.149 294.75C424.119 321.51 399.349 287.51 391.419 265.5C384.62 246.63 379.799 195.63 410.619 196.23C412.539 196.27 423.209 199.99 423.149 196.76C423.139 195.97 419.319 193.27 418.179 192.75C401.679 185.23 386.279 198.01 382.229 213.82C374.389 244.43 387.299 295.02 418.809 308.11C427.319 311.65 432.27 312.5 440.849 308.44C445.309 306.33 454.019 300.22 451.439 294.71L452.119 293.76C455.409 292.77 459.229 291.78 462.679 292.25C463.829 292.41 464.699 291.86 464.139 293.73C461.079 304.05 450.569 315.64 440.119 318.71C428.259 322.19 423.109 317.15 414.749 318.29C411.909 318.68 406.77 321.91 403.379 322.97C395.379 325.46 387.229 326.76 379.369 328.96C375.659 330 370.549 333.34 367.189 333.87C364.419 334.31 360.109 332.04 358.609 334.2C357.729 335.47 359.269 349.46 359.209 352.8C358.999 364.04 358.049 375.38 358.119 386.81C358.229 402.72 362.869 437.83 355.369 450.96C352.629 455.76 347.459 459.1 342.399 460.99C320.459 469.16 293.74 473.22 270.949 480.54C268.849 481.21 256.759 485.24 256.149 485.74C252.359 488.89 260.239 504.19 248.729 509.32L160.389 529.99C154.509 528.92 131.559 529.2 128.699 524.22C127.439 522.02 127.909 516.2 125.529 515.39C117.909 515.44 110.339 514.96 102.779 514.14C92.4095 513.01 62.5995 509.85 55.2195 504.7C47.6195 499.41 45.3095 489.58 45.1595 480.76C44.3895 434.4 47.6695 387.24 47.1995 340.72C47.1095 331.93 45.0895 327.94 48.9595 318.56C49.9395 316.19 57.6795 305.99 57.1595 305.27C45.9295 303.86 38.4195 304.75 28.2495 298.68C-34.6505 261.12 15.0395 82.8703 102.689 116.24C111.069 119.43 117.799 125.78 126.159 127.26C131.299 69.8103 178.639 -5.08973 243.659 0.270268C266.679 2.17027 299.959 23.4803 311.349 43.5803C338.749 91.9403 314.919 164.67 280.199 203.76C280.859 204.91 281.679 204.88 282.719 205.21C294.189 208.9 307.609 210.66 319.149 214.78C321.259 215.53 326.49 219.17 327.509 219.09C329.669 218.91 333.069 214.27 337.139 213.68C339.96 213.27 341.539 215.14 343.789 215.26C347.719 215.45 348.049 211.68 350.269 209.86C359.109 202.58 370.749 198.88 380.889 194.48C384.099 193.08 387.539 189.4 390.869 187.46C403.879 179.92 413.359 180.47 426.529 187.41C428.179 188.28 434.599 191.08 434.179 192.75C433.779 194.32 420.46 202.77 418.289 204.87C416.119 206.97 414.689 210.49 412.699 212.28C411.309 213.52 405.749 215.84 405.399 216.47V216.46ZM171.529 40.6103C134.709 79.3303 106.739 184.72 165.159 215.78C250.509 261.15 336.719 84.8103 270.699 22.2403C240.229 -6.63973 196.049 14.8303 171.529 40.6103ZM316.169 115.25C317.969 100.71 319.119 87.6803 315.709 73.2303C315.169 70.9303 314.329 66.5003 312.189 65.2603C316.399 81.3203 316.4 95.4203 315.139 111.73C315.06 112.79 314.509 115.53 316.169 115.26V115.25ZM75.9995 120.52C64.5295 121.2 48.4495 130.98 40.1695 138.75C9.19948 167.78 -13.9105 274.66 38.2195 292.72C85.5695 309.12 115.449 236.76 120.059 200.64C123.689 172.16 114.169 118.26 75.9995 120.52ZM373.169 253.25C372.219 234.73 373.21 216.88 379.169 199.26C372.579 204.24 363.599 210.17 362.259 218.85C362.099 219.88 361.59 221.53 363.169 221.25C362.599 218.87 370.339 213.35 371.179 214.26C371.799 221.96 359.439 220.69 360.679 227.25L370.179 221.26C372.359 230.83 363.829 228.69 359.649 232.21C358.179 233.45 356.929 236.77 359.579 236.15L370.189 232.26C371.969 238.9 360.049 237.92 359.199 244.25L370.189 240.26C371.409 246.61 367.299 246.36 363.169 248.77C362.59 249.11 359.299 249.74 361.199 251.25C363.199 252.85 370.009 246.03 371.189 247.25L373.189 253.25H373.169ZM356.169 211.26C354.93 209.87 350.46 216.78 349.979 217.56C337.719 237.85 342.799 269.32 353.649 289.27C359.719 300.43 373.189 320.31 387.169 319.24C387.77 316.52 386.349 317.54 385.189 316.77C377.839 311.92 373.129 308.41 367.759 301.16C348.039 274.52 345.46 242.15 356.169 211.25V211.26ZM114.189 275.26C121.719 271.62 125.989 263.2 129.349 255.93C135.329 242.99 139.969 228.34 142.169 214.26L114.189 275.26ZM54.1895 335.26C58.3095 331.68 59.1095 325.39 62.7795 321.36C66.0395 317.77 72.7395 314.94 77.1595 312.74C114.349 294.16 154.869 277.84 192.859 260.44C213.489 250.99 235.829 238.34 256.499 230.08C270.119 224.63 274.339 231.1 275.229 243.73C278.529 290.32 275.629 345.08 276.239 392.72C276.599 420.64 277.999 432.08 249.959 442.54C198.829 461.62 142.699 472.9 90.4195 489C86.0795 490.34 58.2195 498.84 58.2095 501.77C59.1595 503.23 60.1295 503.14 61.6395 503.32C71.5395 504.45 83.6995 498.46 93.1995 495.78C146.179 480.84 203.209 467.43 254.979 449.56C271.769 443.77 282.589 435.74 284.179 416.76C287.579 376.1 283.819 326.13 283.149 284.82C282.879 267.94 284.919 246.96 283.189 230.78C281.489 214.88 265.719 216.65 254.199 220.8C235.339 227.6 213.969 241.18 195.399 250C158.609 267.45 120.339 282.65 83.8295 300.43C68.7895 307.75 51.6395 315.1 54.1995 335.29L54.1895 335.26ZM340.169 221.26C332.539 220.17 328.169 229.63 326.239 235.82C317.829 262.76 326.939 300.55 349.239 318.69C353.769 322.37 364.249 329.1 369.159 323.75C337.969 309.06 322.919 264.81 334.459 233.03C336.109 228.47 339.369 225.59 340.179 221.26H340.169ZM196.179 235.26C182.439 235.37 170.699 228.57 158.189 224.25L142.179 262.25C142.849 262.89 149.759 260.29 151.159 259.74C162.289 255.32 181.139 247.46 191.229 241.81C193.799 240.37 196.649 238.64 196.179 235.26ZM320.169 228.26C312.379 228.16 307.939 240.62 306.469 247.05C300.559 273 310.159 317.19 336.139 329.79C338.979 331.17 345.77 334.45 347.169 329.76C315.96 312.61 305.229 270.65 316.439 238.01C317.629 234.54 320.969 232.38 320.169 228.25V228.26ZM413.819 237.61C409.629 233.17 395.079 224.74 393.199 234.78C391.759 242.47 394.039 259.2 400.119 264.81C405.259 269.54 417.109 269.23 423.229 266.64C423.449 257.02 420.609 244.8 413.819 237.61ZM252.279 248.15C257.339 249.56 259.729 243.55 257.249 239.68L253.879 239.41L251.669 241.25L252.279 248.15ZM298.169 296.26C298.109 291.09 298.269 285.9 298.219 280.72C298.199 278.35 297.109 276.19 297.139 273.81C297.219 267.8 299.919 260.55 299.169 254.26C289.349 262.4 289.099 287.47 298.169 296.26ZM72.1795 355.25C73.6195 356.52 104.159 344.66 108.439 343.02C143.579 329.56 177.979 314.28 213.159 300.74C218.519 298.68 234.069 292.99 237.889 290.48C239.479 289.44 240.589 289.14 240.159 286.77C239.059 285.13 238.679 285.53 237.139 285.65C233.769 285.92 226.299 288.97 222.639 290.24C192.489 300.71 163.519 314.49 134.139 326.74C118.529 333.25 101.899 338.43 86.4795 345.08C84.9895 345.72 69.9295 353.28 72.1595 355.25H72.1795ZM240.179 304.24C240.229 300.37 236.659 301.18 233.949 301.5C227.419 302.29 207.559 310.05 200.229 312.79C163.829 326.37 127.339 343.16 91.1695 357.73C87.7995 359.09 68.1495 363.52 72.1995 369.25L240.189 304.24H240.179ZM410.179 314.24C405.969 306.71 398.639 307.59 391.189 309.26C393.309 317.74 403.689 315.63 410.179 314.24ZM240.169 315.26L231.969 315.55C183.119 333.52 130.729 350.68 83.2095 371.78C78.9795 373.66 74.7595 375.75 71.1995 378.75C72.8995 381.37 76.4195 379 78.6895 378.26C121.739 364.41 165.229 342.73 208.219 327.79C214.819 325.49 234.489 321.65 238.699 318.27C239.759 317.42 240.479 316.74 240.169 315.26ZM71.1895 393.25C99.0995 384.43 125.309 371.55 152.669 361.24C180.029 350.93 209.729 341.18 238.489 332.06C241.629 330.42 240.539 327.11 236.959 327.44C233.699 327.74 226.959 329.97 223.399 330.97C203.219 336.66 180.069 346.18 160.209 353.78C133.929 363.84 101.519 375.28 76.4995 387.07C73.7695 388.35 70.6195 389.54 71.1895 393.25ZM241.169 341.26C234.379 340.89 227.839 343.17 221.409 344.99C191.779 353.34 162.709 365.61 134.159 376.74C114.319 384.48 94.4095 392.1 74.7695 400.35L72.1695 407.24C72.8895 407.81 76.0795 406.12 77.0395 405.62C97.1995 395.34 120.649 385.97 141.899 377.48C173.429 364.88 207.959 356.56 239.679 344.26L241.159 341.25L241.169 341.26ZM240.179 358.24C240.569 354.67 239.189 354 235.939 354.44C229.949 355.26 216.179 360.14 209.639 362.21C179.169 371.89 149.639 383.61 120.159 395.73C105.059 401.94 87.1995 406.34 74.2395 416.81C73.0695 417.75 71.8195 418.44 72.1795 420.24C73.9095 420.49 75.3195 420.05 76.9095 419.48C84.0395 416.89 93.5895 411.02 101.189 407.76C146.479 388.35 193.619 374.27 240.169 358.23L240.179 358.24ZM337.169 377.25L336.199 371.73L311.179 366.26L311.269 371.16L337.159 377.25H337.169ZM240.179 369.26C231.999 368.16 225.169 372.93 217.689 375.27C172.019 389.58 123.639 404.08 80.4995 425.08C77.4395 426.57 72.5495 428.27 72.1795 432.25C98.2795 423.06 123.459 411.32 149.659 402.24C179.489 391.9 210.609 384.95 239.559 372.33L240.179 369.26ZM334.859 385.57C332.509 382.95 312.869 377.62 311.189 379.26L312.199 382.74L336.179 389.25C336.339 387.9 335.729 386.54 334.859 385.57ZM72.1795 443.25C73.0895 444.23 94.7795 436.32 97.6995 435.28C136.759 421.33 176.849 410.44 215.689 396.27C219.939 394.72 236.359 388.6 238.229 385.81C239.029 384.62 239.419 383.73 239.159 382.25C231.149 384.76 223.639 388.6 215.689 391.27C169.389 406.81 123.709 418.63 78.1895 437.77C76.5395 438.46 69.8895 440.8 72.1795 443.25ZM335.179 397.25L335.059 393.87L333.529 392.4C327.689 393.15 318.729 389.02 313.599 389.34C311.929 389.45 311.199 390.68 310.199 391.75C310.15 394.92 331.709 397.77 335.179 397.25ZM236.179 400.27C223.039 402.86 209.089 405.97 196.179 409.76C162.409 419.68 128.889 430.93 96.1595 443.74C90.5495 445.93 76.7195 449.08 72.7995 452.18C71.8495 452.93 71.9695 455.02 72.1795 455.25C74.1295 457.32 120.249 439.97 126.409 437.99C155.949 428.5 186.529 420.7 215.709 410.29C222.319 407.93 230.769 404.45 236.179 400.27ZM335.969 405.45L311.179 402.26C311.049 404.09 310.819 405.32 312.889 406.05C316.18 407.2 330.559 410.31 333.729 410.3C335.189 410.3 336.279 410.3 336.989 408.79L335.969 405.45ZM311.249 418.19C317.969 418.07 326.569 422.2 332.829 422.2C336.869 422.2 337.779 418.95 333.769 417.16C331.499 416.15 311.96 413.43 311.169 414.26L311.239 418.19H311.249ZM343.179 454.27C324.589 450.95 306.139 444.7 287.189 444.27L298.969 448.98C306.339 451.11 334.759 458.72 340.479 457.05C341.309 456.81 343.569 454.79 343.179 454.27ZM215.949 476.5C206.019 472.16 210.449 490.29 207.589 492.38L134.279 514.36L134.189 522.27C135.739 523.8 163.099 513.3 167.399 511.98C184.179 506.84 202.169 503.6 217.699 495.45C220.599 500 247.309 507.03 250.149 505.81C250.739 505.56 252.449 503.65 252.189 503.29C241.059 499.34 229.049 494.79 217.189 494.28L215.959 476.51L215.949 476.5Z" fill="black"/>
<path d="M439.189 286.25L438.169 282.26L436.189 284.25C442.879 264.82 437.789 242.77 424.689 227.24C422.819 225.02 411.259 215.5 413.179 213.26C426.659 208.41 439.639 233.3 443.219 243.71C447.109 255.03 449.129 277.96 439.189 286.25Z" fill="black"/>
<path d="M267.89 46.4598C276.45 43.8798 279.31 57.2298 280.71 63.2298C285.1 82.0198 284.32 111.5 275.35 128.94C271.55 136.32 270.11 137.35 262.5 134.44C257.43 132.5 240.21 123.66 236.69 120.25C232.04 115.75 235.92 110.79 236.21 104.81C236.46 99.5998 234.17 92.1598 235.4 87.9798C235.96 86.0598 256.24 59.4098 259.21 55.7998C260.76 53.9098 266.25 46.9698 267.89 46.4698V46.4598ZM276.17 88.2498C276.48 80.1398 275.93 71.9198 273.88 64.0498C273.64 63.1398 270.51 51.6598 268.18 54.2598L276.16 88.2498H276.17Z" fill="black"/>
<path d="M261.841 145.6C270.211 154.31 254.431 176.75 248.161 183.73C242.281 190.27 217.961 213.26 211.451 198.49C209.231 193.45 209.691 166.67 210.191 159.77C210.481 155.82 211.061 149.84 213.181 146.76C214.711 144.54 225.381 134.53 227.621 133.2C228.741 132.54 229.211 132.21 230.641 132.19C233.791 132.15 259.611 143.29 261.841 145.6Z" fill="black"/>
<path d="M150.891 96.3906C154.161 95.4706 164.871 100.941 168.211 102.741C171.141 104.321 179.451 108.591 179.731 111.721L178.731 140.311C171.421 149.501 165.541 161.931 158.161 170.741C153.141 176.741 148.561 181.381 143.781 172.161C136.851 158.781 139.711 115.041 146.781 101.361C147.521 99.9306 149.381 96.8106 150.881 96.3906H150.891ZM152.181 161.761V120.761C152.181 120.001 155.041 114.831 152.191 114.271C147.721 130.101 148.741 147.041 150.191 163.261C150.821 163.291 152.091 162.101 152.181 161.761Z" fill="black"/>
<path d="M184.881 148.459C188.821 147.279 199.641 149.659 200.961 153.969C203.041 160.749 202.831 183.039 202.221 190.789C201.691 197.489 199.491 208.949 191.631 210.199C179.741 212.089 166.061 206.669 159.191 196.759C154.321 189.739 159.051 183.489 162.781 177.339C165.451 172.929 181.651 149.439 184.901 148.459H184.881Z" fill="black"/>
<path d="M222.919 20.4991C230.929 19.1491 241.399 20.4991 249.169 22.7691C266.569 27.8191 263.759 33.4991 255.399 46.9891C252.569 51.5491 231.489 80.5391 228.529 81.1091C225.139 79.7591 221.769 78.6591 218.219 77.7191C215.549 77.0091 211.519 78.2591 211.169 74.7691C212.129 61.1191 209.329 45.2791 212.449 32.0491C213.929 25.7591 215.919 21.6891 222.909 20.5091L222.919 20.4991ZM251.889 39.5591C247.639 34.6291 227.889 26.8291 222.179 32.7591C230.349 32.9791 236.499 34.1891 243.509 38.4191C245.759 39.7791 248.379 43.2691 250.789 44.1491C252.969 44.9391 253.159 41.0391 251.879 39.5591H251.889ZM258.169 38.2491C261.729 34.5991 245.479 29.9291 243.179 31.2691L258.169 38.2491ZM247.169 50.2491C249.329 48.2991 238.539 42.3491 237.159 41.7691C231.039 39.1991 225.809 38.8191 219.169 39.2691C219.519 41.2191 221.279 40.8991 222.629 41.2991C226.799 42.5491 230.929 42.9991 235.159 44.7691C239.389 46.5391 242.539 50.1991 247.169 50.2491Z" fill="black"/>
<path d="M197.88 32.4495C200.68 32.4095 201.94 36.4795 202.2 38.7395C203.07 46.1995 203.62 61.2795 203.23 68.8095C203.04 72.4295 202.05 75.9095 201.97 79.5495C198.37 83.0895 185.9 97.9395 181.73 98.1595C176.91 98.4195 157.09 88.6295 156.19 83.7195C155.04 77.4895 160.89 67.9495 164.16 62.7395C169.36 54.4495 187.83 32.6095 197.89 32.4595L197.88 32.4495ZM200.17 40.2595C198.36 38.3595 179.75 55.0295 177.66 57.2395C171.11 64.1695 163.96 73.5095 163.18 83.2495C169.32 76.5595 172.16 67.2095 178.65 60.2295C183.84 54.6395 194.73 49.1495 198.74 44.3195C199.86 42.9695 200.51 42.1695 200.17 40.2595Z" fill="black"/>
<path d="M217.88 118.369H219.49C225.65 119.889 220.36 136.919 212.9 134.089L210.34 131.569C210.45 125.869 213.27 121.539 217.88 118.379V118.369Z" fill="black"/>
<path d="M190.39 108.05C188.13 104.14 195.28 93.5598 199.66 92.2598C204.48 98.4198 200.19 105.5 195.53 110.2L190.38 108.05H190.39Z" fill="black"/>
<path d="M214.909 86.4396C216.649 86.0796 218.279 85.9696 219.769 87.1696C223.659 90.2896 219.189 100.38 214.679 100.37C206.449 99.6196 208.279 87.8096 214.909 86.4396Z" fill="black"/>
<path d="M211.031 107.411C211.991 112.291 210.921 118.331 205.901 120.511C195.431 125.051 201.421 101.321 211.031 107.411Z" fill="black"/>
<path d="M229.03 100.41C230.25 102.34 229.55 113.67 224.14 111.84C211.54 107.58 225.71 95.1799 229.03 100.41Z" fill="black"/>
<path d="M188.89 115.439C198.18 112.699 193.98 128.239 188.68 128.289C182.71 126.669 183.48 117.039 188.89 115.439Z" fill="black"/>
<path d="M195.48 128.569C203.72 121.699 203.7 141.379 195.63 141.259C191.53 141.199 192.66 130.919 195.48 128.569Z" fill="black"/>
<path d="M104.84 156.36C109.1 155.22 111.12 166.26 111.71 169.23C113.19 176.68 113.76 185.2 113.21 192.8C112.83 198.11 108.2 224.18 105.63 227.23C102.08 231.45 90.7303 223.47 87.2503 220.68C77.0403 212.47 81.5203 213.39 82.2003 202.8C82.5103 197.94 81.5003 193.74 81.3603 189.02L104.83 156.35L104.84 156.36Z" fill="black"/>
<path d="M40.8799 200.55C43.5999 203.98 40.7699 215.99 40.3799 220.76C40.2199 222.73 41.5699 224.03 40.7499 227.28C40.0099 230.22 24.5799 252.64 22.1699 253.77C19.2699 255.12 17.9099 253.97 16.3299 251.62C10.8799 243.47 13.7199 217.06 15.4799 207.06C16.0299 203.91 18.0399 192.32 20.8599 191.4C23.9799 190.38 38.8199 197.96 40.8899 200.56L40.8799 200.55Z" fill="black"/>
<path d="M75.8893 225.39C78.8793 224.62 96.9593 235.59 97.9793 238.97C99.8593 245.24 92.1893 258.73 88.1593 263.74C84.8893 267.8 69.2993 285.17 64.7293 277.21C62.0893 272.61 62.3193 241.44 65.1493 236.73C66.0193 235.29 74.7393 225.69 75.8893 225.39Z" fill="black"/>
<path d="M76.9491 129.441C83.9091 128.671 101.459 136.911 101.149 144.661C101.039 147.471 98.1091 153.531 96.5991 156.171C95.0891 158.811 79.6591 179.061 78.1591 179.751C75.2491 181.091 68.6391 178.491 66.7191 176.231C64.6891 173.851 65.0591 169.731 65.1491 166.721C65.3691 159.651 66.2291 143.011 68.2491 136.821C69.5691 132.771 72.6391 129.931 76.9591 129.451L76.9491 129.441Z" fill="black"/>
<path d="M59.05 138.389C61.41 139.879 59.19 147.329 59.14 149.719C58.95 157.759 60.5 170.579 58.13 177.709C57.05 180.949 48.74 191.949 45.66 192.279C43.54 192.509 26.07 183.219 25.39 182.069C21.78 175.889 35.7 154.799 40.16 149.749C42.99 146.539 54.68 135.629 59.06 138.399L59.05 138.389Z" fill="black"/>
<path d="M45.8895 235.391C48.0595 234.831 56.5695 238.671 57.1595 241.781C58.2495 247.531 57.7395 269.171 57.0495 275.631C56.0095 285.531 51.4595 286.651 41.9095 285.021C36.0395 284.021 25.7995 275.711 25.1795 269.681C24.4995 263.091 40.3095 236.821 45.8795 235.391H45.8895Z" fill="black"/>
<path d="M69.3091 211.119C67.6191 207.139 67.2991 202.389 70.6591 199.249C79.1991 191.259 79.5091 214.429 69.3091 211.119Z" fill="black"/>
<path d="M49.8496 207.399C55.9396 205.789 53.5196 222.389 46.7996 220.179C43.0796 218.959 45.9696 208.429 49.8496 207.399Z" fill="black"/>
<path d="M66.3693 185.46C69.6293 184.37 73.5793 186 73.2293 189.7C66.7493 201.39 59.2193 196.9 66.3693 185.46Z" fill="black"/>
<path d="M57.1792 214.251C56.0392 210.701 57.8992 202.311 62.6492 203.251C66.6092 204.041 63.3092 216.351 57.1792 214.251Z" fill="black"/>
<path d="M58.0808 191.37C59.2608 194.49 56.7608 202.47 52.7108 201.25C49.0808 197.99 52.1508 193.17 55.1608 190.74L58.0808 191.36V191.37Z" fill="black"/>
<path d="M72.1 220.961C72.1 229.331 62.62 223.371 63.63 218.831C65.88 213.971 72.1 216.091 72.1 220.961Z" fill="black"/>
<path d="M56.0608 230.189C45.6108 230.889 51.1108 218.269 59.4408 221.979C63.6708 223.859 59.6308 229.949 56.0608 230.189Z" fill="black"/>
</g>
<defs>
<clipPath id="clip0_12_20">
<rect width="464.33" height="529.99" fill="white"/>
</clipPath>
</defs>
</svg>
