<svg width="337" height="196" viewBox="0 0 337 196" fill="none" xmlns="http://www.w3.org/2000/svg">
<path d="M108.573 7.83998C107.988 7.84193 107.41 7.97498 106.883 8.22935C106.356 8.48373 105.892 8.85298 105.526 9.30998C104.516 10.5732 103.171 11.3695 101.92 11.3695C101.615 11.3695 100.514 11.0753 100.174 10.8489C99.4204 10.3464 98.5156 10.1206 97.6139 10.21C96.7122 10.2993 95.8693 10.6982 95.2285 11.3389C94.0083 12.5591 92.992 14.0163 92.1507 15.5881C91.4215 14.3851 90.5132 13.2585 89.3945 12.2729C86.8032 9.72693 83.567 8.27964 80.207 7.94717C79.3565 7.86301 78.4968 7.84938 77.6421 7.90123C75.0782 8.05678 72.5387 8.81616 70.2615 10.1445C69.5753 10.5451 69.0271 11.1447 68.6893 11.8639C68.3516 12.583 68.2404 13.3879 68.3704 14.1717C68.6114 15.618 68.3567 16.9572 67.5052 17.8084C67.1832 18.1304 66.6202 18.5369 65.7979 18.7425C65.0307 18.9341 64.3393 19.3532 63.8146 19.9449C63.2899 20.5365 62.9564 21.273 62.8579 22.0576C62.3635 26.0126 63.0771 30.5221 65.3002 34.4914C65.1584 34.4359 64.9735 34.4216 64.8945 34.3689C64.1404 33.8664 63.2356 33.6406 62.3339 33.73C61.4322 33.8193 60.5893 34.2182 59.9485 34.8589C56.9806 37.8269 54.8801 41.96 54.8801 46.6495C54.8801 50.2795 55.4732 53.0973 56.2812 55.2781C55.9752 55.0186 55.6865 54.7038 55.4007 54.2751C55.0363 53.7284 54.5404 53.282 53.9584 52.977C53.3765 52.6719 52.7272 52.5181 52.0702 52.5295C51.8336 52.5337 51.5979 52.5593 51.3659 52.6061C48.3217 53.2149 46.2576 54.883 44.6896 56.059C44.2031 56.4236 43.8081 56.8962 43.5357 57.4397C43.2633 57.9832 43.121 58.5825 43.1201 59.1904V59.979C43.1201 61.2297 42.4614 62.368 40.9457 63.3784C40.4088 63.7364 39.9685 64.2214 39.664 64.7904C39.3595 65.3593 39.2001 65.9947 39.2001 66.64V67.819C39.2001 69.9005 39.5905 72.2463 40.8002 74.4187C37.4551 77.3017 35.2801 81.5122 35.2801 86.24C35.279 86.4476 35.2943 86.655 35.326 86.8601L51.006 184.86C51.1537 185.781 51.6248 186.619 52.3349 187.224C53.0449 187.829 53.9474 188.161 54.8801 188.16H72.3287H89.0423C89.7765 188.38 90.559 188.38 91.2932 188.16H122.393C123.096 188.361 123.841 188.361 124.544 188.16H141.12C142.053 188.161 142.955 187.829 143.665 187.224C144.375 186.619 144.847 185.781 144.994 184.86L160.644 87.0286C160.678 86.8593 160.701 86.6879 160.712 86.5156C160.737 86.1619 160.714 85.8065 160.644 85.459C160.354 79.7594 156.992 74.8766 152.176 72.3745C152.676 70.8255 152.88 69.2578 152.88 67.819V66.64C152.88 65.9947 152.721 65.3593 152.416 64.7904C152.112 64.2214 151.671 63.7364 151.134 63.3784C149.619 62.368 148.96 61.2297 148.96 59.979V59.1904C148.959 58.5825 148.817 57.9832 148.544 57.4397C148.272 56.8962 147.877 56.4236 147.391 56.059C147.375 56.0476 147.352 56.0323 147.337 56.0208C148.562 53.8392 148.96 51.4825 148.96 49.3904V48.219C148.96 47.5737 148.801 46.9384 148.496 46.3694C148.192 45.8005 147.751 45.3155 147.214 44.9575C145.699 43.947 145.04 42.8011 145.04 41.5504V40.7695C145.04 40.1603 144.899 39.5594 144.626 39.0145C144.354 38.4697 143.958 37.9958 143.471 37.6305C141.903 36.4544 139.838 34.7863 136.794 34.1775C136.537 34.1259 136.276 34.1003 136.013 34.1009C135.369 34.1022 134.736 34.2622 134.168 34.5666C133.601 34.8711 133.117 35.3107 132.759 35.8465C131.861 37.195 130.984 37.6305 129.36 37.6305C129.36 36.9024 129.157 36.1888 128.775 35.5694C128.392 34.9501 127.845 34.4496 127.193 34.1239C126.4 33.727 125.44 32.2202 125.44 30.9695V30.1809C125.439 29.573 125.297 28.9736 125.024 28.4302C124.752 27.8867 124.357 27.414 123.871 27.0495C123.151 26.5101 122.288 25.8701 121.313 25.2733C121.412 24.5666 121.52 23.862 121.52 23.1295V21.9504C121.52 21.2224 121.317 20.5088 120.935 19.8894C120.552 19.2701 120.005 18.7695 119.353 18.4439C118.56 18.047 117.6 16.5402 117.6 15.2895V14.5009C117.599 13.893 117.457 13.2936 117.184 12.7502C116.912 12.2067 116.517 11.734 116.031 11.3695C114.463 10.1935 112.398 8.52538 109.354 7.91654C109.097 7.86497 108.836 7.83932 108.573 7.83998ZM78.1245 15.9862C80.2618 15.7267 82.3348 16.2383 83.9662 17.8697C84.0376 17.9388 84.1117 18.0052 84.1882 18.0687C85.5218 19.2118 86.2303 20.8669 86.3702 22.4098C86.3231 22.4106 86.2886 22.4175 86.2401 22.4175C85.9352 22.4175 84.8341 22.1233 84.4945 21.8969C83.7404 21.3944 82.8356 21.1686 81.9339 21.2579C81.0322 21.3473 80.1893 21.7462 79.5485 22.3869C77.1324 24.803 75.3569 28.0112 74.7557 31.6433C74.5217 31.5808 74.321 31.4859 74.0743 31.4365C73.8172 31.385 73.5556 31.3593 73.2934 31.36C73.0519 31.3607 72.8109 31.3838 72.5737 31.4289C72.5003 31.3106 72.2904 31.0001 72.2904 31.0001C72.2803 30.9848 72.2701 30.9694 72.2598 30.9542C71.212 29.2021 70.987 26.6401 70.9429 24.5306C71.5996 24.0962 72.5585 23.8491 73.0484 23.3592C75.0742 21.3333 75.7463 18.8908 75.9807 16.4915C76.6941 16.2474 77.412 16.0727 78.1245 15.9862ZM109.132 16.369C109.458 16.5391 109.819 16.7252 110.212 16.9892C110.587 19.5131 111.779 21.6444 113.634 23.3822C113.617 23.8987 113.55 24.4003 113.45 24.8904C113.422 24.9232 113.394 24.9563 113.366 24.99C112.356 26.2532 111.011 27.0495 109.76 27.0495C109.455 27.0495 108.354 26.7553 108.014 26.5289C107.26 26.0264 106.356 25.8006 105.454 25.89C104.552 25.9793 103.709 26.3782 103.069 27.0189C102.802 27.2852 102.585 27.6071 102.334 27.8917C102.072 27.3947 101.92 26.8777 101.92 26.3375V25.5489C101.919 24.941 101.777 24.3416 101.504 23.7981C101.232 23.2547 100.837 22.782 100.351 22.4175C99.8285 22.026 99.1476 21.5669 98.4978 21.1236C98.8911 20.2559 99.4484 19.4403 99.9984 18.6276C100.641 18.7369 101.274 19.2095 101.92 19.2095C104.848 19.2095 107.159 17.9368 109.132 16.369ZM93.4523 27.417C93.79 27.5932 94.1605 27.7832 94.5701 28.0601C95.0103 30.5779 96.2033 32.6811 97.9465 34.3919C97.9127 35.5497 97.6935 36.4462 97.3263 37.0639C95.6024 36.1623 93.7588 35.5751 91.8598 35.3872C88.9136 35.0956 85.9129 35.6918 83.1852 36.995C82.6868 35.7383 82.3201 34.5293 82.3201 34.1775C82.3201 32.472 83.3681 31.0798 84.3184 29.6756C84.9614 29.7848 85.5944 30.2575 86.2401 30.2575C88.8987 30.2575 91.3353 29.0765 93.4523 27.417ZM116.972 32.049C117.298 32.2191 117.659 32.4052 118.052 32.6692C118.424 35.1714 119.601 37.2833 121.428 39.0162C121.363 41.2772 120.433 43.345 118.772 45.0187C118.084 45.3191 117.496 45.8107 117.079 46.4351C116.181 47.7836 115.304 48.219 113.68 48.219C113.375 48.219 112.274 47.9249 111.934 47.6984C111.18 47.1959 110.276 46.9702 109.374 47.0595C108.472 47.1488 107.629 47.5477 106.989 48.1884C106.436 48.7414 105.95 49.373 105.465 50.0029C105.34 49.0821 105.225 48.1624 105.006 47.2237C104.634 45.6382 104.092 44.0402 103.245 42.5458C104.012 42.2702 104.675 41.7623 105.14 41.0926C105.605 40.4229 105.85 39.6249 105.84 38.8095C105.84 37.1041 106.888 35.7118 107.838 34.3076C108.481 34.4169 109.114 34.8895 109.76 34.8895C112.688 34.8895 114.999 33.6168 116.972 32.049ZM73.8523 39.889C74.5171 40.2358 75.0697 40.425 76.0496 41.16C76.1047 41.2023 76.1608 41.2431 76.2181 41.2825C76.9213 42.7056 77.8114 44.0876 79.0279 45.3479C78.6947 45.651 78.1929 45.9969 77.4507 46.1825C76.7353 46.3617 76.0849 46.7391 75.5743 47.2714C75.0638 47.8036 74.7137 48.4691 74.5643 49.1914C74.5643 49.1914 74.2513 50.5337 73.4235 51.7869C73.2058 52.1165 72.9954 52.4097 72.7727 52.6673C72.4137 52.5693 72.0424 52.5229 71.6702 52.5295C71.4336 52.5337 71.1979 52.5593 70.9659 52.6061C68.4494 53.1094 66.7047 54.3106 65.2543 55.3853C64.801 54.7478 64.3869 54.2427 64.014 53.4865C63.375 52.1908 62.7201 50.2528 62.7201 46.6495C62.7201 44.9441 63.7681 43.5518 64.7184 42.1476C65.3614 42.2569 65.9944 42.7295 66.6401 42.7295C69.2987 42.7295 71.7353 41.5485 73.8523 39.889ZM136.572 42.63C136.91 42.8062 137.281 42.9962 137.69 43.2731C138.13 45.7918 139.323 47.9013 141.067 49.6125C141.028 50.8975 140.791 51.9272 140.339 52.5295C140.334 52.5346 140.329 52.5397 140.324 52.5448C140.194 52.5332 140.064 52.5281 139.933 52.5295C139.289 52.5308 138.656 52.6908 138.088 52.9952C137.521 53.2997 137.037 53.7393 136.679 54.2751C135.781 55.6236 134.904 56.059 133.28 56.059C132.975 56.059 131.874 55.7649 131.534 55.5384C130.019 54.528 129.36 53.3897 129.36 52.139V51.3504C129.359 50.7425 129.217 50.1432 128.944 49.5997C128.672 49.0562 128.277 48.5836 127.791 48.219C127.491 47.9942 127.066 47.7264 126.726 47.4764C127.185 46.7561 127.624 46.0254 127.974 45.2331C128.418 45.3951 128.888 45.4755 129.36 45.4704C132.019 45.4704 134.455 44.2895 136.572 42.63ZM89.7773 43.4262C91.9146 43.1667 93.9876 43.6783 95.619 45.3097C95.6905 45.3788 95.7645 45.4452 95.841 45.5087C96.0875 45.72 96.921 47.1208 97.3646 49.0153C97.7172 50.5213 97.8743 52.2033 97.9388 53.7086C97.7684 53.8827 97.6147 54.0724 97.4795 54.2751C96.5805 55.6236 95.7041 56.059 94.0801 56.059C93.7752 56.059 92.6741 55.7649 92.3345 55.5384C91.5804 55.0359 90.6756 54.8102 89.7739 54.8995C88.8722 54.9888 88.0293 55.3878 87.3885 56.0284C86.9712 56.4457 86.6197 56.9372 86.2401 57.3989C85.8605 56.9372 85.509 56.4457 85.0917 56.0284C84.4757 55.4135 83.6726 55.0211 82.809 54.913C81.9454 54.8049 81.0704 54.9872 80.3218 55.4312C81.0082 54.2237 81.2135 53.445 81.4549 52.6137C82.607 52.0298 83.9451 51.5553 84.7012 50.7992C86.7271 48.7733 87.3991 46.3308 87.6335 43.9315C88.3469 43.6874 89.0648 43.5127 89.7773 43.4262ZM120.892 53.2186C121.23 53.3948 121.6 53.5847 122.01 53.8617C122.349 55.7984 123.133 57.4886 124.269 58.9454C122.604 61.4899 121.52 64.5029 121.52 67.819C121.52 68.7202 121.62 69.6477 121.78 70.5753C121.693 70.5738 121.608 70.56 121.52 70.56C118.167 70.56 115.099 71.6869 112.555 73.5153C113.404 71.6067 113.68 69.6143 113.68 67.819V66.64C113.68 65.9947 113.521 65.3593 113.216 64.7904C112.912 64.2214 112.471 63.7364 111.934 63.3784C110.419 62.368 109.76 61.2297 109.76 59.979C109.76 58.2736 110.808 56.8814 111.758 55.4772C112.401 55.5864 113.034 56.059 113.68 56.059C116.339 56.059 118.775 54.8781 120.892 53.2186ZM51.5879 61.0586C53.7049 62.7181 56.1415 63.899 58.8001 63.899C59.2018 63.899 59.6014 63.8633 60.0021 63.8225C59.6229 64.1874 59.3211 64.6249 59.1145 65.109C58.908 65.593 58.8011 66.1137 58.8001 66.64V67.819C58.8001 69.5759 59.0725 71.5214 59.8796 73.3928C57.3391 71.6175 54.2716 70.56 50.9601 70.56C49.8749 70.56 48.8154 70.6759 47.7904 70.8892C47.3604 70.28 47.1302 69.2893 47.0937 68.0334C48.8368 66.3227 50.0299 64.2194 50.4701 61.7017C50.8797 61.4248 51.2502 61.2348 51.5879 61.0586ZM101.292 61.0586C101.584 61.2109 101.912 61.3973 102.257 61.6175C102.33 61.7839 102.414 61.9451 102.51 62.0998C103.003 64.4369 104.139 66.4164 105.787 68.0334C105.749 69.3229 105.512 70.3467 105.059 70.9505C104.943 71.1033 104.838 71.2645 104.745 71.4328C104.745 71.4328 104.521 71.768 104.385 71.984C102.436 71.085 100.281 70.56 98.0001 70.56C95.6316 70.56 93.3927 71.1111 91.3851 72.0759C90.6494 70.7217 90.1601 69.1742 90.1601 67.819C90.1601 66.1136 91.2081 64.7214 92.1584 63.3172C92.8014 63.4264 93.4344 63.899 94.0801 63.899C96.7387 63.899 99.1753 62.7181 101.292 61.0586ZM140.492 61.0586C140.83 61.2348 141.201 61.4247 141.61 61.7017C142.05 64.2194 143.243 66.3227 144.987 68.0334C144.954 69.1339 144.745 69.9808 144.412 70.5983C139.977 70.781 136.032 72.8503 133.28 76.0036C133.25 75.9695 133.211 75.9455 133.181 75.9117C133.011 75.1374 132.61 74.4327 132.032 73.8905C130.813 72.7548 129.36 68.5377 129.36 67.819C129.36 66.1494 130.371 64.7834 131.305 63.409C131.343 63.3867 131.382 63.3638 131.42 63.3401C132.041 63.4677 132.655 63.899 133.28 63.899C135.939 63.899 138.375 62.7181 140.492 61.0586ZM71.7162 61.4261C73.7098 62.8774 75.9551 63.899 78.4001 63.899C79.0458 63.899 79.6788 63.4264 80.3218 63.3172C81.2721 64.7214 82.3201 66.1136 82.3201 67.819C82.3201 69.1742 81.8308 70.7217 81.0951 72.0759C79.0875 71.1111 76.8485 70.56 74.4801 70.56C72.2023 70.56 70.0465 71.0825 68.0871 71.9687C67.9564 71.7622 67.7349 71.4328 67.7349 71.4328C67.6423 71.2645 67.5373 71.1033 67.421 70.9505C66.9682 70.3467 66.7312 69.3229 66.6937 68.0334C68.4368 66.3227 69.6299 64.2194 70.0701 61.7017C70.1823 61.6258 70.2699 61.5899 70.3763 61.5256C70.8336 61.514 71.2837 61.4892 71.7162 61.4261ZM50.9601 78.4C55.3374 78.4 58.8001 81.8627 58.8001 86.24C58.7927 86.7594 58.8887 87.2752 59.0824 87.7572C59.2761 88.2392 59.5637 88.678 59.9284 89.0479C60.2932 89.4178 60.7278 89.7116 61.207 89.9121C61.6863 90.1126 62.2006 90.2158 62.7201 90.2158C63.2396 90.2158 63.7539 90.1126 64.2332 89.9121C64.7124 89.7116 65.147 89.4178 65.5118 89.0479C65.8765 88.678 66.1641 88.2392 66.3578 87.7572C66.5515 87.2752 66.6474 86.7594 66.6401 86.24C66.6401 83.6707 67.8549 81.4393 69.7256 80.0155C69.8732 79.9154 70.0139 79.8054 70.1467 79.6862C71.3837 78.8734 72.8671 78.4 74.4801 78.4C78.8574 78.4 82.3201 81.8627 82.3201 86.24C82.307 87.2316 82.6702 88.1913 83.3365 88.9258C84.0028 89.6603 84.9227 90.115 85.9109 90.1983C86.0407 90.2099 86.171 90.215 86.3013 90.2136C87.3397 90.1974 88.3291 89.7698 89.0525 89.0249C89.776 88.2799 90.1743 87.2783 90.1601 86.24C90.1601 81.8627 93.6228 78.4 98.0001 78.4C99.582 78.4 101.034 78.8637 102.257 79.648C102.437 79.8111 102.632 79.9572 102.839 80.0844C104.66 81.5113 105.84 83.7104 105.84 86.24C105.827 87.2316 106.19 88.1913 106.856 88.9258C107.523 89.6603 108.443 90.115 109.431 90.1983C109.561 90.2099 109.691 90.215 109.821 90.2136C110.86 90.1974 111.849 89.7698 112.573 89.0249C113.296 88.2799 113.694 87.2783 113.68 86.24C113.68 81.8627 117.143 78.4 121.52 78.4C125.897 78.4 129.36 81.8627 129.36 86.24C129.347 87.2316 129.71 88.1913 130.376 88.9258C131.043 89.6603 131.963 90.115 132.951 90.1983C133.081 90.2099 133.211 90.215 133.341 90.2136C134.38 90.1974 135.369 89.7698 136.093 89.0249C136.816 88.2799 137.214 87.2783 137.2 86.24C137.2 81.8627 140.663 78.4 145.04 78.4C149.346 78.4 152.747 81.7569 152.857 86.0333L137.774 180.32H127.814L135.753 102.318C135.817 101.764 135.763 101.203 135.593 100.672C135.423 100.14 135.141 99.6517 134.767 99.2379C134.394 98.8241 133.936 98.4949 133.424 98.2721C132.913 98.0494 132.36 97.9384 131.802 97.9464C130.832 97.9598 129.901 98.3329 129.189 98.9934C128.478 99.6539 128.037 100.555 127.951 101.522L119.943 180.32H109.921L112.96 102.073C112.988 101.549 112.911 101.026 112.732 100.533C112.554 100.039 112.279 99.5871 111.922 99.2023C111.566 98.8175 111.136 98.5081 110.658 98.2924C110.18 98.0767 109.664 97.959 109.14 97.9464C108.102 97.9218 107.096 98.3104 106.344 99.0267C105.591 99.743 105.154 100.728 105.128 101.767L102.066 180.32H93.8963L90.1524 101.736C90.1202 100.745 89.7136 99.8034 89.0147 99.1002C88.3157 98.397 87.3763 97.9847 86.3856 97.9464C85.8387 97.9262 85.2937 98.0207 84.7856 98.2238C84.2775 98.4269 83.8175 98.7342 83.4353 99.1258C83.0531 99.5174 82.7571 99.9846 82.5663 100.498C82.3756 101.01 82.2943 101.558 82.3277 102.104L86.0487 180.32H75.7204L67.3292 101.507C67.2383 100.52 66.7772 99.6042 66.0386 98.9437C65.2999 98.2831 64.3386 97.9268 63.3479 97.9464C62.8004 97.9575 62.2614 98.0832 61.7654 98.3154C61.2695 98.5475 60.8277 98.881 60.4685 99.2943C60.1093 99.7076 59.8407 100.192 59.6799 100.715C59.5191 101.238 59.4698 101.79 59.5351 102.333L67.8345 180.32H58.2259L43.1584 86.1481C43.2151 81.8222 46.619 78.4 50.9601 78.4Z" fill="#B79833"/>
<path d="M285.611 7.87061L250.331 11.7906C248.693 11.959 247.345 13.1381 246.963 14.7306L236.994 54.88H199.8C191.179 54.88 184.12 61.939 184.12 70.56V74.48C184.12 76.639 185.881 78.4 188.04 78.4H192.358L203.735 184.669C203.965 186.644 205.634 188.16 207.64 188.16H270.36C272.366 188.16 274.035 186.644 274.265 184.669L285.642 78.4H289.96C292.119 78.4 293.88 76.639 293.88 74.48V70.56C293.88 61.939 286.821 54.88 278.2 54.88H245.079L253.899 19.2631L286.469 15.6494L285.611 7.87061ZM199.8 62.72H278.2C282.58 62.72 286.04 66.1806 286.04 70.56H191.96C191.96 66.1806 195.421 62.72 199.8 62.72ZM200.244 78.4H277.756L266.838 180.32H211.162L200.244 78.4Z" fill="#B79833"/>
</svg>
