<svg width="349" height="161" viewBox="0 0 349 161" fill="none" xmlns="http://www.w3.org/2000/svg">
<path d="M337.158 67.0291H343.834C346.688 67.0291 349 64.717 349 61.863V30.8688C349 28.0147 346.688 25.7026 343.834 25.7026H337.158C331.566 25.7026 327.016 21.1534 327.016 15.5612V5.16615C327.016 2.31212 324.704 0 321.85 0H130.014C127.16 0 124.848 2.31212 124.848 5.16615C124.848 8.02018 127.16 10.3323 130.014 10.3323H316.684V15.5612C316.684 26.8505 325.869 36.0349 337.158 36.0349H338.668V56.6968H337.158C325.869 56.6968 316.684 65.8812 316.684 77.1706C316.684 88.4599 325.869 97.6443 337.158 97.6443H338.668V118.306H337.158C325.869 118.306 316.684 127.491 316.684 138.78V150.491H280.963C278.109 150.491 275.797 152.803 275.797 155.657C275.797 158.511 278.109 160.824 280.963 160.824H321.85C324.704 160.824 327.016 158.511 327.016 155.657V138.78C327.016 133.188 331.566 128.639 337.158 128.639H343.834C346.688 128.639 349 126.326 349 123.472V92.4782C349 89.6242 346.688 87.312 343.834 87.312H337.158C331.566 87.312 327.016 82.7628 327.016 77.1706C327.016 71.5784 331.566 67.0291 337.158 67.0291Z" fill="#B79833"/>
<path d="M235.619 150.491H32.3159V145.262C32.3159 133.973 23.1315 124.789 11.8421 124.789H10.3323V104.127H11.8421C23.1315 104.127 32.3159 94.9423 32.3159 83.653C32.3159 72.3637 23.1315 63.1792 11.8421 63.1792H10.3323V42.5173H11.8421C23.1315 42.5173 32.3159 33.3329 32.3159 22.0436V10.3323H91.273C94.1271 10.3323 96.4392 8.02018 96.4392 5.16615C96.4392 2.31212 94.1271 0 91.273 0H27.1497C24.2957 0 21.9836 2.31212 21.9836 5.16615V22.0436C21.9836 27.6351 17.4343 32.185 11.8421 32.185H5.16615C2.31212 32.185 0 34.4972 0 37.3512V68.3454C0 71.1994 2.31212 73.5115 5.16615 73.5115H11.8421C17.4336 73.5115 21.9836 78.0608 21.9836 83.653C21.9836 89.2452 17.4343 93.7944 11.8421 93.7944H5.16615C2.31212 93.7944 0 96.1066 0 98.9606V129.955C0 132.809 2.31212 135.121 5.16615 135.121H11.8421C17.4336 135.121 21.9836 139.67 21.9836 145.262V155.657C21.9836 158.511 24.2957 160.824 27.1497 160.824H235.619C238.473 160.824 240.785 158.511 240.785 155.657C240.785 152.803 238.473 150.491 235.619 150.491Z" fill="#B79833"/>
<path d="M306.881 24.2188H141.438C138.584 24.2188 136.272 26.5309 136.272 29.3849C136.272 32.2389 138.584 34.5511 141.438 34.5511H301.716V126.272H48.5873V34.5511H97.0492C99.9033 34.5511 102.215 32.2389 102.215 29.3849C102.215 26.5309 99.9033 24.2188 97.0492 24.2188H43.4212C40.5678 24.2188 38.255 26.5316 38.255 29.3849V131.438C38.255 134.292 40.5671 136.604 43.4212 136.604H306.881C309.735 136.604 312.047 134.292 312.047 131.438V29.3849C312.047 26.5309 309.735 24.2188 306.881 24.2188Z" fill="#B79833"/>
<path d="M95.245 61.7451C94.1257 61.7451 93.2607 62.1009 93.0065 63.0675L85.2739 90.6399L77.4903 63.0675C77.236 62.1009 76.3717 61.7451 75.2525 61.7451C73.472 61.7451 71.0808 62.8644 71.0808 64.4921C71.0808 64.5937 71.1313 64.7975 71.1824 65.0006L81 96.9982C81.5092 98.5244 83.3401 99.2367 85.2732 99.2367C87.2071 99.2367 89.0884 98.5244 89.5465 96.9982L99.315 64.9999C99.3655 64.7968 99.4166 64.6448 99.4166 64.4914C99.4166 62.9141 97.0247 61.7451 95.245 61.7451Z" fill="#B79833"/>
<path d="M106.231 61.7451C104.552 61.7451 102.924 62.3559 102.924 63.7798V96.8462C102.924 98.2197 104.552 98.932 106.231 98.932C107.859 98.932 109.538 98.2197 109.538 96.8462V63.7798C109.538 62.3559 107.859 61.7451 106.231 61.7451Z" fill="#B79833"/>
<path d="M128.36 61.7451H118.135C116.609 61.7451 115.643 62.7117 115.643 63.7798L115.644 96.8462C115.644 98.2197 117.271 98.932 118.95 98.932C120.578 98.932 122.258 98.2197 122.258 96.8462V85.0443H127.955C134.67 85.0443 139.909 81.8392 139.909 73.4959V73.1912C139.908 64.8479 134.82 61.7451 128.36 61.7451ZM133.294 74.0044C133.294 77.9729 131.259 79.8543 127.953 79.8543H122.256V67.5432H127.953C131.259 67.5432 133.294 69.4252 133.294 73.393V74.0044Z" fill="#B79833"/>
<path d="M160.881 83.9749H147.654C146.434 83.9749 145.62 85.1957 145.62 86.7219C145.62 88.3496 146.434 89.4178 147.654 89.4178H160.881C161.949 89.4178 163.018 88.3496 163.018 86.7219C163.017 85.1957 161.949 83.9749 160.881 83.9749Z" fill="#B79833"/>
<path d="M187.495 61.7451H177.27C175.744 61.7451 174.778 62.7117 174.778 63.7798H174.779V96.8462C174.779 98.2197 176.407 98.932 178.085 98.932C179.713 98.932 181.393 98.2197 181.393 96.8462V85.0443H187.09C193.805 85.0443 199.044 81.8392 199.044 73.4959V73.1912C199.043 64.8479 193.955 61.7451 187.495 61.7451ZM192.429 74.0044C192.429 77.9729 190.394 79.8543 187.088 79.8543H181.391V67.5432H187.088C190.394 67.5432 192.429 69.4252 192.429 73.393V74.0044Z" fill="#B79833"/>
<path d="M226.767 95.675L216.949 63.6775C216.491 62.1513 214.609 61.439 212.675 61.439C210.793 61.439 208.911 62.1513 208.453 63.6775L198.635 95.675C198.584 95.8789 198.534 96.082 198.534 96.1836C198.534 97.812 200.925 98.9312 202.704 98.9306C203.824 98.9306 204.688 98.5747 204.942 97.6082L206.876 90.8429H218.525L220.459 97.6082C220.713 98.5747 221.578 98.9306 222.698 98.9306C224.477 98.9306 226.869 97.7609 226.869 96.1836C226.868 96.0315 226.817 95.8789 226.767 95.675ZM208.25 85.6536L212.676 70.0358L217.103 85.6536H208.25Z" fill="#B79833"/>
<path d="M236.075 71.0529C236.075 68.6113 238.161 67.1355 241.824 67.1355C246.097 67.1355 247.266 69.0693 248.843 69.0693C250.675 69.0693 251.489 66.7286 251.489 65.5589C251.489 62.2018 244.824 61.4895 241.823 61.4895C235.973 61.4895 229.461 64.0845 229.461 71.6644C229.461 83.7205 245.791 81.3811 245.791 89.0114C245.791 92.0645 243.146 93.438 240.094 93.4373C234.904 93.4373 233.531 89.5192 231.446 89.5192C229.868 89.5192 228.546 91.6569 228.546 93.0801C228.546 96.0303 233.634 99.388 240.297 99.388C247.318 99.388 252.405 95.6233 252.405 88.3489C252.405 75.1734 236.075 77.3608 236.075 71.0529Z" fill="#B79833"/>
<path d="M262.629 71.0529C262.629 68.6113 264.714 67.1355 268.377 67.1355C272.65 67.1355 273.82 69.0693 275.396 69.0693C277.228 69.0693 278.042 66.7286 278.042 65.5589C278.042 62.2018 271.378 61.4895 268.376 61.4895C262.526 61.4895 256.015 64.0845 256.015 71.6644C256.015 83.7205 272.345 81.3811 272.345 89.0114C272.345 92.0645 269.699 93.438 266.647 93.4373C261.458 93.4373 260.084 89.5192 257.999 89.5192C256.422 89.5192 255.099 91.6569 255.099 93.0801C255.099 96.0303 260.187 99.388 266.851 99.388C273.871 99.388 278.958 95.6233 278.958 88.3489C278.958 75.1734 262.629 77.3608 262.629 71.0529Z" fill="#B79833"/>
</svg>
