<svg width="349" height="349" viewBox="0 0 349 349" fill="none" xmlns="http://www.w3.org/2000/svg">
<g clip-path="url(#clip0_177_150)">
<path d="M337.158 161.117H343.834C346.688 161.117 349 158.805 349 155.951V124.957C349 122.103 346.688 119.791 343.834 119.791H337.158C331.566 119.791 327.016 115.242 327.016 109.649V99.2543C327.016 96.4003 324.704 94.0882 321.85 94.0882H130.014C127.16 94.0882 124.848 96.4003 124.848 99.2543C124.848 102.108 127.16 104.421 130.014 104.421H316.684V109.649C316.684 120.939 325.869 130.123 337.158 130.123H338.668V150.785H337.158C325.869 150.785 316.684 159.969 316.684 171.259C316.684 182.548 325.869 191.733 337.158 191.733H338.668V212.394H337.158C325.869 212.394 316.684 221.579 316.684 232.868V244.579H280.963C278.109 244.579 275.797 246.892 275.797 249.746C275.797 252.6 278.109 254.912 280.963 254.912H321.85C324.704 254.912 327.016 252.6 327.016 249.746V232.868C327.016 227.277 331.566 222.727 337.158 222.727H343.834C346.688 222.727 349 220.415 349 217.561V186.566C349 183.712 346.688 181.4 343.834 181.4H337.158C331.566 181.4 327.016 176.851 327.016 171.259C327.016 165.667 331.566 161.117 337.158 161.117Z" fill="#B79833"/>
<path d="M235.619 244.579H32.3159V239.351C32.3159 228.061 23.1315 218.877 11.8421 218.877H10.3323V198.215H11.8421C23.1315 198.215 32.3159 189.031 32.3159 177.741C32.3159 166.452 23.1315 157.267 11.8421 157.267H10.3323V136.606H11.8421C23.1315 136.606 32.3159 127.421 32.3159 116.132V104.421H91.273C94.1271 104.421 96.4392 102.108 96.4392 99.2543C96.4392 96.4003 94.1271 94.0882 91.273 94.0882H27.1497C24.2957 94.0882 21.9836 96.4003 21.9836 99.2543V116.132C21.9836 121.723 17.4343 126.273 11.8421 126.273H5.16615C2.31212 126.273 0 128.585 0 131.439V162.434C0 165.288 2.31212 167.6 5.16615 167.6H11.8421C17.4336 167.6 21.9836 172.149 21.9836 177.741C21.9836 183.333 17.4343 187.883 11.8421 187.883H5.16615C2.31212 187.883 0 190.195 0 193.049V224.043C0 226.897 2.31212 229.209 5.16615 229.209H11.8421C17.4336 229.209 21.9836 233.758 21.9836 239.351V249.746C21.9836 252.6 24.2957 254.912 27.1497 254.912H235.619C238.473 254.912 240.785 252.6 240.785 249.746C240.785 246.892 238.473 244.579 235.619 244.579Z" fill="#B79833"/>
<path d="M306.881 118.307H141.438C138.584 118.307 136.272 120.619 136.272 123.473C136.272 126.327 138.584 128.639 141.438 128.639H301.716V220.36H48.5874V128.639H97.0494C99.9034 128.639 102.216 126.327 102.216 123.473C102.216 120.619 99.9034 118.307 97.0494 118.307H43.4213C40.5679 118.307 38.2551 120.62 38.2551 123.473V225.526C38.2551 228.38 40.5673 230.692 43.4213 230.692H306.881C309.735 230.692 312.047 228.38 312.047 225.526V123.473C312.047 120.619 309.735 118.307 306.881 118.307Z" fill="#B79833"/>
<path d="M95.245 155.833C94.1257 155.833 93.2607 156.189 93.0065 157.156L85.2739 184.728L77.4903 157.156C77.236 156.189 76.3717 155.833 75.2525 155.833C73.472 155.833 71.0808 156.953 71.0808 158.58C71.0808 158.682 71.1313 158.886 71.1824 159.089L81 191.086C81.5092 192.613 83.3401 193.325 85.2732 193.325C87.2071 193.325 89.0884 192.613 89.5465 191.086L99.315 159.088C99.3655 158.885 99.4166 158.733 99.4166 158.58C99.4166 157.002 97.0247 155.833 95.245 155.833Z" fill="#B79833"/>
<path d="M106.231 155.833C104.552 155.833 102.924 156.444 102.924 157.868V190.934C102.924 192.308 104.552 193.02 106.231 193.02C107.859 193.02 109.538 192.308 109.538 190.934V157.868C109.538 156.444 107.859 155.833 106.231 155.833Z" fill="#B79833"/>
<path d="M128.36 155.833H118.135C116.609 155.833 115.643 156.8 115.643 157.868L115.644 190.934C115.644 192.308 117.271 193.02 118.95 193.02C120.578 193.02 122.258 192.308 122.258 190.934V179.132H127.955C134.67 179.132 139.909 175.927 139.909 167.584V167.279C139.908 158.936 134.82 155.833 128.36 155.833ZM133.294 168.093C133.294 172.061 131.259 173.942 127.953 173.942H122.256V161.631H127.953C131.259 161.631 133.294 163.513 133.294 167.481V168.093Z" fill="#B79833"/>
<path d="M160.881 178.063H147.654C146.434 178.063 145.62 179.284 145.62 180.81C145.62 182.438 146.434 183.506 147.654 183.506H160.881C161.949 183.506 163.018 182.438 163.018 180.81C163.017 179.284 161.949 178.063 160.881 178.063Z" fill="#B79833"/>
<path d="M187.495 155.833H177.27C175.744 155.833 174.778 156.8 174.778 157.868H174.779V190.934C174.779 192.308 176.407 193.02 178.085 193.02C179.713 193.02 181.393 192.308 181.393 190.934V179.132H187.09C193.805 179.132 199.044 175.927 199.044 167.584V167.279C199.043 158.936 193.955 155.833 187.495 155.833ZM192.429 168.093C192.429 172.061 190.394 173.942 187.088 173.942H181.391V161.631H187.088C190.394 161.631 192.429 163.513 192.429 167.481V168.093Z" fill="#B79833"/>
<path d="M226.767 189.763L216.948 157.766C216.49 156.24 214.608 155.527 212.675 155.527C210.793 155.527 208.911 156.24 208.452 157.766L198.635 189.763C198.584 189.967 198.534 190.17 198.534 190.272C198.534 191.9 200.925 193.02 202.704 193.019C203.823 193.019 204.688 192.663 204.942 191.696L206.876 184.931H218.525L220.459 191.696C220.713 192.663 221.578 193.019 222.697 193.019C224.477 193.019 226.869 191.849 226.869 190.272C226.868 190.12 226.817 189.967 226.767 189.763ZM208.25 179.742L212.676 164.124L217.103 179.742H208.25Z" fill="#B79833"/>
<path d="M236.075 165.141C236.075 162.699 238.161 161.224 241.824 161.224C246.097 161.224 247.266 163.158 248.843 163.158C250.675 163.158 251.489 160.817 251.489 159.647C251.489 156.29 244.824 155.578 241.823 155.578C235.973 155.578 229.461 158.173 229.461 165.753C229.461 177.809 245.791 175.469 245.791 183.1C245.791 186.153 243.146 187.526 240.094 187.526C234.904 187.526 233.531 183.607 231.446 183.607C229.868 183.607 228.546 185.745 228.546 187.168C228.546 190.118 233.634 193.476 240.297 193.476C247.318 193.476 252.405 189.712 252.405 182.437C252.405 169.262 236.075 171.449 236.075 165.141Z" fill="#B79833"/>
<path d="M262.629 165.141C262.629 162.699 264.715 161.224 268.377 161.224C272.65 161.224 273.82 163.158 275.397 163.158C277.228 163.158 278.042 160.817 278.042 159.647C278.042 156.29 271.378 155.578 268.376 155.578C262.527 155.578 256.015 158.173 256.015 165.753C256.015 177.809 272.345 175.469 272.345 183.1C272.345 186.153 269.699 187.526 266.647 187.526C261.458 187.526 260.084 183.607 257.999 183.607C256.422 183.607 255.099 185.745 255.099 187.168C255.099 190.118 260.187 193.476 266.851 193.476C273.871 193.476 278.958 189.712 278.958 182.437C278.958 169.262 262.629 171.449 262.629 165.141Z" fill="#B79833"/>
</g>
<defs>
<clipPath id="clip0_177_150">
<rect width="349" height="349" fill="white"/>
</clipPath>
</defs>
</svg>
