<svg width="50" height="50" viewBox="0 0 50 50" fill="none" xmlns="http://www.w3.org/2000/svg">
<g clip-path="url(#clip0_51_69)">
<path d="M25 0C11.1735 0 0 11.1735 0 25C0 38.8265 11.1735 50 25 50C38.8265 50 50 38.8265 50 25C50 11.1735 38.8265 0 25 0ZM25 45.8469C13.5102 45.8469 4.15306 36.4898 4.15306 25C4.15306 13.5102 13.5102 4.15306 25 4.15306C36.4898 4.15306 45.8469 13.5102 45.8469 25C45.8469 36.4898 36.4898 45.8469 25 45.8469Z" fill="#C4C4C4"/>
<path d="M29.6835 22.8673H27.1325V13.0816C27.1325 11.9082 26.1733 10.949 24.9998 10.949C23.8264 10.949 22.8672 11.9082 22.8672 13.0816V25C22.8672 26.1735 23.8264 27.1326 24.9998 27.1326H29.6835C30.857 27.1326 31.8162 26.1735 31.8162 25C31.8162 23.8265 30.8468 22.8673 29.6835 22.8673Z" fill="#C4C4C4"/>
</g>
<defs>
<clipPath id="clip0_51_69">
<rect width="50" height="50" fill="white"/>
</clipPath>
</defs>
</svg>
