<svg width="87" height="100" viewBox="0 0 87 100" fill="none" xmlns="http://www.w3.org/2000/svg">
<g clip-path="url(#clip0_177_106)">
<path d="M75.9584 40.8422C75.8516 41.0403 75.9265 41.3252 75.9228 41.5498C77.2812 41.563 78.4466 42.9724 79.1792 44.0272C80.8149 46.3801 81.2871 48.965 80.9555 51.8198C80.8112 53.0594 80.0973 54.1274 79.8519 55.3293C80.7119 55.4142 81.0023 54.4368 81.5344 54.0104L81.6356 54.5802C82.4338 54.2255 83.0802 55.2387 83.7809 55.6142C79.4659 60.6633 74.8248 54.2481 73.339 50.0952C72.0649 46.5348 71.1618 36.9119 76.9364 37.0252C77.2962 37.0327 79.2954 37.7346 79.2841 37.1252C79.2823 36.9761 78.5665 36.4667 78.3529 36.3685C75.2614 34.9496 72.3759 37.361 71.6171 40.3441C70.1481 46.1197 72.567 55.6651 78.471 58.135C80.0655 58.8029 80.9929 58.9633 82.6005 58.1973C83.4362 57.7991 85.0682 56.6463 84.5847 55.6066L84.7122 55.4274C85.3286 55.2406 86.0443 55.0538 86.6907 55.1425C86.9062 55.1727 87.0692 55.0689 86.9643 55.4217C86.391 57.3689 84.4217 59.5558 82.4638 60.135C80.2416 60.7916 79.2766 59.8407 77.7103 60.0558C77.1781 60.1294 76.2151 60.7388 75.5799 60.9388C74.081 61.4086 72.5539 61.6539 71.0812 62.069C70.3861 62.2653 69.4287 62.8955 68.7991 62.9955C68.2801 63.0785 67.4725 62.6502 67.1915 63.0577C67.0266 63.2974 67.3152 65.937 67.3039 66.5672C67.2646 68.688 67.0866 70.8277 67.0997 72.9843C67.1203 75.9863 67.9897 82.6109 66.5844 85.0883C66.071 85.994 65.1024 86.6242 64.1543 86.9808C60.0434 88.5224 55.037 89.2884 50.7669 90.6696C50.3735 90.796 48.1082 91.5564 47.9939 91.6507C47.2838 92.2451 48.7602 95.1319 46.6036 96.0999L30.0517 99.9999C28.9499 99.798 24.6499 99.8509 24.114 98.9112C23.8779 98.4961 23.966 97.398 23.52 97.2452C22.0923 97.2546 20.6739 97.164 19.2575 97.0093C17.3145 96.7961 11.7291 96.1999 10.3463 95.2281C8.92231 94.23 8.48949 92.3753 8.46138 90.7111C8.31711 81.9637 8.93167 73.0655 8.84361 64.2879C8.82675 62.6294 8.44827 61.8766 9.17338 60.1067C9.357 59.6595 10.8072 57.735 10.7098 57.5991C8.60566 57.3331 7.19853 57.501 5.29301 56.3557C-6.49236 49.2688 2.8179 15.6361 19.2406 21.9324C20.8107 22.5343 22.0717 23.7325 23.6381 24.0117C24.6012 13.1719 33.4711 -0.960465 45.6537 0.0508751C49.9669 0.409372 56.2024 4.4302 58.3365 8.22273C63.4704 17.3474 59.0054 31.0703 52.5001 38.4459C52.6237 38.6629 52.7774 38.6573 52.9722 38.7195C55.1213 39.4158 57.6358 39.7479 59.798 40.5252C60.1933 40.6667 61.1733 41.3535 61.3644 41.3384C61.7691 41.3045 62.4061 40.429 63.1687 40.3177C63.6971 40.2403 63.9931 40.5932 64.4147 40.6158C65.1511 40.6516 65.2129 39.9403 65.6289 39.5969C67.2852 38.2233 69.4661 37.5252 71.366 36.695C71.9675 36.4308 72.612 35.7365 73.2359 35.3704C75.6736 33.9477 77.4498 34.0515 79.9174 35.361C80.2266 35.5251 81.4295 36.0534 81.3508 36.3685C81.2759 36.6648 78.7801 38.2591 78.3735 38.6554C77.967 39.0516 77.699 39.7158 77.3262 40.0535C77.0657 40.2875 76.024 40.7252 75.9584 40.8441V40.8422ZM32.1389 7.66234C25.2401 14.9681 19.9994 34.8534 30.9454 40.7139C46.9371 49.2744 63.09 16.0021 50.7201 4.19624C45.011 -1.25292 36.7332 2.7981 32.1389 7.66234ZM59.2397 21.7456C59.5769 19.0022 59.7924 16.5436 59.1535 13.8172C59.0523 13.3832 58.8949 12.5473 58.4939 12.3134C59.2827 15.3436 59.2827 18.004 59.0467 21.0815C59.0317 21.2815 58.9286 21.7985 59.2397 21.7475V21.7456ZM14.2398 22.74C12.0907 22.8683 9.07782 24.7136 7.52642 26.1797C1.72368 31.6571 -2.60637 51.8236 7.16106 55.2312C16.0329 58.3256 21.6314 44.6725 22.4952 37.8573C23.1753 32.4836 21.3916 22.3136 14.2398 22.74ZM69.9196 47.7839C69.7416 44.2894 69.927 40.9215 71.0438 37.5969C69.809 38.5365 68.1265 39.6554 67.8754 41.2932C67.8454 41.4875 67.7498 41.7988 68.0459 41.746C67.9391 41.2969 69.3893 40.2554 69.5467 40.4271C69.6629 41.88 67.347 41.6403 67.5793 42.8781L69.3593 41.7479C69.7678 43.5536 68.1695 43.1498 67.3864 43.814C67.1109 44.0479 66.8767 44.6744 67.3732 44.5574L69.3612 43.8234C69.6947 45.0763 67.4613 44.8913 67.302 46.0857L69.3612 45.3329C69.5898 46.531 68.8197 46.4838 68.0459 46.9386C67.9372 47.0027 67.3208 47.1216 67.6768 47.4065C68.0515 47.7084 69.3275 46.4216 69.5486 46.6518L69.9233 47.7839H69.9196ZM66.7343 39.8611C66.502 39.5988 65.6645 40.9026 65.5745 41.0498C63.2774 44.8781 64.2292 50.816 66.2622 54.5802C67.3995 56.6859 69.9233 60.4369 72.5427 60.235C72.6551 59.7218 72.389 59.9143 72.1717 59.769C70.7946 58.8539 69.9121 58.1916 68.9059 56.8236C65.211 51.7971 64.7276 45.6895 66.7343 39.8592V39.8611ZM21.3953 51.9368C22.8062 51.25 23.6062 49.6612 24.2358 48.2895C25.3562 45.848 26.2256 43.0838 26.6378 40.4271L21.3953 51.9368ZM10.1533 63.2577C10.9253 62.5822 11.0751 61.3954 11.7628 60.635C12.3736 59.9577 13.629 59.4237 14.4571 59.0086C21.4253 55.5029 29.0174 52.4236 36.1355 49.1405C40.0008 47.3574 44.1866 44.9706 48.0595 43.4121C50.6114 42.3838 51.4021 43.6045 51.5689 45.9876C52.1872 54.7783 51.6438 65.1106 51.7581 74.0994C51.8255 79.3675 52.0879 81.526 46.8341 83.4996C37.254 87.0997 26.7371 89.228 16.9416 92.2658C16.1284 92.5187 10.9084 94.1225 10.9065 94.6753C11.0845 94.9508 11.2663 94.9338 11.5492 94.9678C13.4041 95.181 15.6825 94.0508 17.4625 93.5451C27.3892 90.7262 38.0747 88.1959 47.7747 84.8242C50.9206 83.7317 52.9479 82.2166 53.2458 78.6354C53.8828 70.9635 53.1783 61.5351 53.0528 53.7406C53.0022 50.5556 53.3844 46.597 53.0603 43.5442C52.7418 40.5441 49.787 40.8781 47.6285 41.6611C44.0948 42.9441 40.0908 45.5065 36.6114 47.1706C29.7181 50.4631 22.5476 53.3311 15.7069 56.6859C12.8889 58.0671 9.67552 59.4539 10.1552 63.2634L10.1533 63.2577ZM63.7365 41.7479C62.3068 41.5422 61.488 43.3272 61.1264 44.4951C59.5507 49.5782 61.2576 56.7086 65.4359 60.1313C66.2846 60.8256 68.2482 62.0954 69.1682 61.086C63.3242 58.3142 60.5044 49.965 62.6666 43.9687C62.9757 43.1083 63.5866 42.5649 63.7383 41.7479H63.7365ZM36.7575 44.3894C34.1831 44.4102 31.9834 43.1272 29.6394 42.3121L26.6397 49.482C26.7652 49.6028 28.0599 49.1122 28.3223 49.0084C30.4077 48.1744 33.9395 46.6914 35.83 45.6253C36.3116 45.3536 36.8456 45.0272 36.7575 44.3894ZM59.9891 43.0687C58.5295 43.0498 57.6976 45.4008 57.4222 46.614C56.3149 51.5103 58.1136 59.8482 62.9814 62.2256C63.5135 62.486 64.7857 63.1049 65.048 62.22C59.2003 58.9841 57.1899 51.0669 59.2902 44.9083C59.5132 44.2536 60.139 43.846 59.9891 43.0668V43.0687ZM77.536 44.8329C76.7509 43.9951 74.0248 42.4045 73.6725 44.2989C73.4027 45.7499 73.8299 48.9065 74.9691 49.965C75.9322 50.8575 78.1524 50.799 79.2991 50.3103C79.3404 48.4952 78.8082 46.1895 77.536 44.8329ZM47.2688 46.8216C48.2169 47.0876 48.6647 45.9536 48.2 45.2234L47.5686 45.1725L47.1545 45.5197L47.2688 46.8216ZM55.867 55.8991C55.8558 54.9236 55.8858 53.9443 55.8764 52.967C55.8727 52.5198 55.6684 52.1122 55.6741 51.6632C55.6891 50.5292 56.1949 49.1612 56.0544 47.9744C54.2145 49.5103 54.1676 54.2406 55.867 55.8991ZM13.524 67.0295C13.7938 67.2691 19.516 65.0313 20.318 64.7219C26.902 62.1822 33.3474 59.2992 39.939 56.7444C40.9433 56.3557 43.8568 55.2821 44.5726 54.8085C44.8705 54.6123 45.0785 54.5557 44.9979 54.1085C44.7918 53.7991 44.7206 53.8745 44.4321 53.8972C43.8006 53.9481 42.401 54.5236 41.7152 54.7632C36.0661 56.7387 30.6381 59.3388 25.1333 61.6502C22.2085 62.8785 19.0926 63.8559 16.2034 65.1106C15.9242 65.2314 13.1025 66.6578 13.5203 67.0295H13.524ZM45.0016 57.4048C45.011 56.6746 44.3421 56.8274 43.8344 56.8878C42.6108 57.0369 38.8897 58.501 37.5163 59.018C30.6962 61.5803 23.8592 64.7483 17.0821 67.4974C16.4507 67.754 12.7689 68.5899 13.5278 69.6711L45.0035 57.4048H45.0016ZM76.854 59.2916C76.0652 57.8708 74.6918 58.0369 73.2959 58.352C73.6931 59.952 75.638 59.5539 76.854 59.2916ZM44.9998 59.4841L43.4634 59.5388C34.3105 62.9294 24.4944 66.1672 15.5907 70.1484C14.7981 70.5032 14.0074 70.8975 13.3404 71.4635C13.6589 71.9579 14.3185 71.5107 14.7438 71.3711C22.8099 68.7578 30.9585 64.6672 39.0134 61.8483C40.25 61.4143 43.9355 60.6898 44.7243 60.052C44.923 59.8916 45.0579 59.7633 44.9998 59.4841ZM13.3385 74.1994C18.5679 72.5353 23.4788 70.105 28.6052 68.1597C33.7315 66.2144 39.2963 64.3747 44.685 62.6539C45.2733 62.3445 45.0691 61.72 44.3983 61.7822C43.7875 61.8388 42.5247 62.2596 41.8576 62.4483C38.0766 63.5219 33.739 65.3181 30.0179 66.7521C25.0939 68.6503 19.0214 70.8088 14.3335 73.0334C13.8219 73.2749 13.2317 73.4994 13.3385 74.1994ZM45.1871 64.3898C43.9149 64.32 42.6895 64.7502 41.4848 65.0936C35.9331 66.6691 30.4863 68.9843 25.137 71.0843C21.4197 72.5447 17.6892 73.9825 14.0093 75.5391L13.5222 76.8391C13.6571 76.9467 14.2548 76.6278 14.4346 76.5335C18.2119 74.5938 22.6057 72.8258 26.5872 71.2239C32.4949 68.8465 38.9647 67.2767 44.908 64.9559L45.1853 64.3879L45.1871 64.3898ZM45.0016 67.5937C45.0747 66.9201 44.8162 66.7936 44.2072 66.8767C43.0849 67.0314 40.5048 67.9522 39.2795 68.3427C33.5704 70.1692 28.0375 72.3805 22.5139 74.6674C19.6847 75.8391 16.3383 76.6693 13.91 78.6448C13.6908 78.8222 13.4566 78.9524 13.524 79.292C13.8482 79.3392 14.1124 79.2561 14.4103 79.1486C15.7462 78.6599 17.5356 77.5523 18.9595 76.9372C27.4454 73.2749 36.2779 70.6182 44.9998 67.5918L45.0016 67.5937ZM63.1744 71.1805L62.9926 70.139L58.3047 69.1069L58.3215 70.0314L63.1725 71.1805H63.1744ZM45.0016 69.6729C43.469 69.4654 42.1893 70.3654 40.7878 70.8069C32.2307 73.507 23.1659 76.2429 15.0829 80.2052C14.5096 80.4864 13.5934 80.8071 13.524 81.5581C18.4143 79.8241 23.1322 77.6089 28.0412 75.8957C33.6304 73.9447 39.4612 72.6334 44.8855 70.2522L45.0016 69.6729ZM62.7415 72.7504C62.3012 72.256 58.6213 71.2503 58.3066 71.5598L58.4958 72.2164L62.9889 73.4447C63.0188 73.19 62.9045 72.9334 62.7415 72.7504ZM13.524 83.6336C13.6945 83.8185 17.7585 82.326 18.3056 82.1298C25.6242 79.4977 33.1357 77.4429 40.413 74.7693C41.2093 74.4768 44.2859 73.3221 44.6363 72.7956C44.7862 72.5711 44.8593 72.4032 44.8105 72.1239C43.3097 72.5975 41.9026 73.3221 40.413 73.8259C31.738 76.758 23.179 78.9882 14.6501 82.5996C14.341 82.7298 13.095 83.1713 13.524 83.6336ZM62.8015 74.9542L62.779 74.3164L62.4923 74.0391C61.3981 74.1806 59.7193 73.4013 58.7581 73.4617C58.4452 73.4825 58.3084 73.7145 58.1211 73.9164C58.1117 74.5145 62.1513 75.0523 62.8015 74.9542ZM44.2522 75.524C41.7902 76.0127 39.1764 76.5995 36.7575 77.3146C30.4301 79.1863 24.1496 81.309 18.0171 83.726C16.966 84.1393 14.3747 84.7336 13.6402 85.3185C13.4622 85.46 13.4847 85.8544 13.524 85.8978C13.8894 86.2884 22.5308 83.0147 23.6849 82.6411C29.2197 80.8505 34.9494 79.3788 40.4168 77.4146C41.6553 76.9693 43.2385 76.3127 44.2522 75.524ZM62.9495 76.5014L58.3047 75.8995C58.2803 76.2448 58.2372 76.4768 58.6251 76.6146C59.2415 76.8316 61.9359 77.4184 62.5298 77.4165C62.8034 77.4165 63.0076 77.4165 63.1406 77.1316L62.9495 76.5014ZM58.3178 78.9052C59.5769 78.8826 61.1883 79.6618 62.3612 79.6618C63.1181 79.6618 63.2886 79.0486 62.5373 78.7109C62.112 78.5203 58.4508 78.0071 58.3028 78.1637L58.3159 78.9052H58.3178ZM64.3004 85.7129C60.8173 85.0864 57.3604 83.9072 53.8098 83.826L56.0169 84.7147C57.3978 85.1166 62.7228 86.5525 63.7945 86.2374C63.9501 86.1921 64.3735 85.811 64.3004 85.7129ZM40.4618 89.9073C38.6012 89.0884 39.4312 92.5092 38.8954 92.9036L25.1595 97.0508L25.1426 98.5433C25.4331 98.832 30.5594 96.8508 31.3651 96.6018C34.5091 95.6319 37.8798 95.0206 40.7896 93.4828C41.333 94.3413 46.3376 95.6678 46.8697 95.4376C46.9802 95.3904 47.3006 95.03 47.2519 94.9621C45.1665 94.2168 42.9163 93.3583 40.6941 93.2621L40.4636 89.9092L40.4618 89.9073Z" fill="white"/>
<path d="M82.2895 54.0105L82.0984 53.2576L81.7274 53.6331C82.9809 49.967 82.0272 45.8065 79.5727 42.8763C79.2224 42.4574 77.0564 40.6612 77.4161 40.2385C79.9418 39.3234 82.3739 44.0197 83.0446 45.9839C83.7735 48.1198 84.152 52.4463 82.2895 54.0105Z" fill="white"/>
<path d="M50.1937 8.76617C51.7975 8.27937 52.3334 10.7983 52.5957 11.9304C53.4183 15.4757 53.2721 21.0381 51.5914 24.3287C50.8794 25.7212 50.6096 25.9155 49.1838 25.3665C48.2338 25.0004 45.0074 23.3325 44.3478 22.6891C43.4766 21.84 44.2036 20.9041 44.2579 19.7758C44.3047 18.7928 43.8757 17.389 44.1061 16.6003C44.2111 16.238 48.0109 11.2096 48.5673 10.5285C48.8578 10.1719 49.8864 8.8624 50.1937 8.76805V8.76617ZM51.7451 16.6512C51.8032 15.121 51.7001 13.57 51.316 12.0851C51.271 11.9134 50.6846 9.74732 50.248 10.2379L51.7432 16.6512H51.7451Z" fill="white"/>
<path d="M49.0601 27.4723C50.6284 29.1157 47.6717 33.3497 46.4969 34.6667C45.3952 35.9007 40.8384 40.2386 39.6187 37.4517C39.2027 36.5007 39.2889 31.4478 39.3826 30.1459C39.4369 29.4006 39.5456 28.2723 39.9428 27.6911C40.2295 27.2723 42.2287 25.3836 42.6484 25.1326C42.8583 25.0081 42.9463 24.9458 43.2143 24.942C43.8045 24.9345 48.6423 27.0364 49.0601 27.4723Z" fill="white"/>
<path d="M28.2718 18.1871C28.8845 18.0135 30.8912 19.0456 31.517 19.3853C32.066 19.6834 33.623 20.4891 33.6755 21.0796L33.4881 26.4741C32.1185 28.2081 31.0168 30.5534 29.634 32.2157C28.6934 33.3478 27.8353 34.2233 26.9397 32.4836C25.6412 29.959 26.1771 21.7061 27.5018 19.1249C27.6404 18.8551 27.9889 18.2664 28.27 18.1871H28.2718ZM28.5135 30.5213V22.7853C28.5135 22.6419 29.0494 21.6664 28.5154 21.5608C27.6779 24.5476 27.869 27.7439 28.1407 30.8043C28.2587 30.81 28.4967 30.5855 28.5135 30.5213Z" fill="white"/>
<path d="M34.6405 28.0118C35.3787 27.7891 37.406 28.2382 37.6533 29.0514C38.0431 30.3307 38.0037 34.5364 37.8894 35.9987C37.7901 37.2629 37.3779 39.4252 35.9052 39.6611C33.6774 40.0177 31.1142 38.995 29.827 37.1252C28.9146 35.8006 29.8008 34.6213 30.4997 33.4609C30.9999 32.6289 34.0353 28.1967 34.6442 28.0118H34.6405Z" fill="white"/>
<path d="M41.7677 3.86803C43.2685 3.61331 45.2302 3.86803 46.6861 4.29634C49.9463 5.24919 49.4198 6.32091 47.8534 8.86624C47.3231 9.72663 43.3734 15.1965 42.8188 15.3041C42.1837 15.0494 41.5522 14.8418 40.8871 14.6645C40.3868 14.5305 39.6317 14.7663 39.5661 14.1078C39.746 11.5323 39.2214 8.54359 39.806 6.04732C40.0833 4.8605 40.4561 4.09256 41.7658 3.86992L41.7677 3.86803ZM47.1957 7.46432C46.3994 6.53412 42.6989 5.06239 41.629 6.18128C43.1598 6.22279 44.3121 6.4511 45.6256 7.24923C46.0472 7.50583 46.5381 8.16434 46.9896 8.33038C47.3981 8.47944 47.4337 7.74357 47.1938 7.46432H47.1957ZM48.3724 7.21715C49.0394 6.52846 45.9947 5.64731 45.5637 5.90014L48.3724 7.21715ZM46.3113 9.48134C46.7161 9.11341 44.6944 7.99075 44.4358 7.88131C43.2891 7.3964 42.3092 7.3247 41.0651 7.40961C41.1307 7.77754 41.4604 7.71716 41.7134 7.79263C42.4947 8.02849 43.2685 8.11339 44.0611 8.44736C44.8536 8.78133 45.4438 9.47191 46.3113 9.48134Z" fill="white"/>
<path d="M37.076 6.12274C37.6006 6.11519 37.8367 6.88313 37.8854 7.30955C38.0485 8.71712 38.1515 11.5625 38.0784 12.9832C38.0428 13.6663 37.8573 14.3229 37.8423 15.0097C37.1678 15.6776 34.8314 18.4796 34.05 18.5211C33.1469 18.5701 29.4333 16.7229 29.2647 15.7965C29.0492 14.621 30.1453 12.821 30.758 11.8379C31.7323 10.2738 35.193 6.15292 37.0779 6.12462L37.076 6.12274ZM37.5051 7.59635C37.166 7.23785 33.6791 10.3832 33.2875 10.8002C32.0602 12.1078 30.7205 13.8701 30.5744 15.7078C31.7248 14.4455 32.2569 12.6813 33.473 11.3643C34.4454 10.3096 36.4858 9.27374 37.2372 8.3624C37.447 8.10768 37.5688 7.95673 37.5051 7.59635Z" fill="white"/>
<path d="M40.8234 22.3344H41.1251C42.2792 22.6211 41.2881 25.8344 39.8903 25.3004L39.4106 24.825C39.4313 23.7495 39.9596 22.9325 40.8234 22.3362V22.3344Z" fill="white"/>
<path d="M35.6728 20.3871C35.2494 19.6494 36.589 17.6531 37.4097 17.4078C38.3128 18.5701 37.509 19.906 36.6359 20.7928L35.6709 20.3871H35.6728Z" fill="white"/>
<path d="M40.2669 16.3098C40.5929 16.2418 40.8983 16.2211 41.1775 16.4475C41.9064 17.0362 41.0688 18.94 40.2238 18.9381C38.6818 18.7966 39.0247 16.5683 40.2669 16.3098Z" fill="white"/>
<path d="M39.5401 20.2664C39.72 21.1872 39.5195 22.3268 38.5789 22.7382C36.6172 23.5948 37.7395 19.1173 39.5401 20.2664Z" fill="white"/>
<path d="M42.9127 18.9457C43.1413 19.3098 43.0101 21.4476 41.9965 21.1023C39.6357 20.2985 42.2906 17.9589 42.9127 18.9457Z" fill="white"/>
<path d="M35.3918 21.7816C37.1324 21.2646 36.3455 24.1967 35.3524 24.2062C34.2339 23.9005 34.3781 22.0835 35.3918 21.7816Z" fill="white"/>
<path d="M36.6264 24.259C38.1703 22.9627 38.1666 26.676 36.6545 26.6533C35.8863 26.642 36.0981 24.7024 36.6264 24.259Z" fill="white"/>
<path d="M19.6435 29.5025C20.4416 29.2874 20.8201 31.3704 20.9307 31.9308C21.208 33.3365 21.3148 34.9441 21.2117 36.3781C21.1405 37.38 20.273 42.2989 19.7915 42.8744C19.1263 43.6706 16.9997 42.165 16.3477 41.6385C14.4347 40.0894 15.2741 40.263 15.4015 38.2649C15.4596 37.3479 15.2703 36.5554 15.2441 35.6648L19.6416 29.5006L19.6435 29.5025Z" fill="white"/>
<path d="M7.65957 37.8403C8.16921 38.4875 7.63896 40.7536 7.56589 41.6536C7.53591 42.0253 7.78885 42.2706 7.63521 42.8838C7.49656 43.4386 4.60549 47.6688 4.15394 47.882C3.61057 48.1368 3.35576 47.9198 3.05972 47.4764C2.03857 45.9386 2.57069 40.9555 2.90045 39.0687C3.00351 38.4743 3.38011 36.2875 3.90849 36.1139C4.49307 35.9214 7.27359 37.3516 7.66144 37.8422L7.65957 37.8403Z" fill="white"/>
<path d="M14.2193 42.5272C14.7796 42.3819 18.1672 44.4517 18.3583 45.0895C18.7105 46.2725 17.2734 48.8179 16.5183 49.7632C15.9056 50.5292 12.9846 53.8066 12.1283 52.3047C11.6337 51.4368 11.6768 45.5555 12.207 44.6668C12.37 44.3951 14.0039 42.5838 14.2193 42.5272Z" fill="white"/>
<path d="M14.4179 24.4232C15.722 24.2779 19.0103 25.8326 18.9522 27.2949C18.9316 27.8251 18.3826 28.9685 18.0997 29.4666C17.8168 29.9648 14.9257 33.7856 14.6447 33.9158C14.0994 34.1686 12.8609 33.678 12.5012 33.2516C12.1208 32.8026 12.1902 32.0252 12.207 31.4572C12.2482 30.1233 12.4094 26.9836 12.7879 25.8156C13.0352 25.0515 13.6104 24.5156 14.4198 24.425L14.4179 24.4232Z" fill="white"/>
<path d="M11.064 26.1118C11.5062 26.3929 11.0903 27.7986 11.0809 28.2496C11.0453 29.7666 11.3357 32.1855 10.8916 33.5308C10.6893 34.1421 9.13227 36.2177 8.55518 36.2799C8.15797 36.3233 4.88467 34.5705 4.75726 34.3535C4.08086 33.1874 6.68901 29.2081 7.52467 28.2552C8.05491 27.6496 10.2452 25.591 11.0659 26.1137L11.064 26.1118Z" fill="white"/>
<path d="M8.59822 44.414C9.0048 44.3084 10.5993 45.0329 10.7098 45.6197C10.9141 46.7046 10.8185 50.7877 10.6892 52.0066C10.4944 53.8746 9.64185 54.0859 7.8525 53.7784C6.75266 53.5897 4.83402 52.0217 4.71785 50.884C4.59044 49.6405 7.55271 44.6839 8.59634 44.414H8.59822Z" fill="white"/>
<path d="M12.9865 39.8347C12.6698 39.0837 12.6099 38.1875 13.2394 37.595C14.8396 36.0874 14.8976 40.4592 12.9865 39.8347Z" fill="white"/>
<path d="M9.34031 39.1329C10.4814 38.8291 10.0279 41.9612 8.76884 41.5442C8.07184 41.314 8.61333 39.3272 9.34031 39.1329Z" fill="white"/>
<path d="M12.4355 34.9931C13.0464 34.7875 13.7865 35.095 13.7209 35.7931C12.5067 37.9988 11.0959 37.1517 12.4355 34.9931Z" fill="white"/>
<path d="M10.7136 40.4253C10.5 39.7555 10.8485 38.1725 11.7385 38.3498C12.4805 38.4989 11.8622 40.8216 10.7136 40.4253Z" fill="white"/>
<path d="M10.8824 36.1082C11.1035 36.6969 10.635 38.2026 9.87621 37.9724C9.19607 37.3573 9.77129 36.4479 10.3353 35.9894L10.8824 36.1064V36.1082Z" fill="white"/>
<path d="M13.5091 41.6913C13.5091 43.2706 11.7328 42.146 11.9221 41.2894C12.3436 40.3724 13.5091 40.7724 13.5091 41.6913Z" fill="white"/>
<path d="M10.5037 43.4329C8.54569 43.565 9.57621 41.1838 11.137 41.8839C11.9295 42.2386 11.1726 43.3877 10.5037 43.4329Z" fill="white"/>
</g>
<defs>
<clipPath id="clip0_177_106">
<rect width="87" height="100" fill="white"/>
</clipPath>
</defs>
</svg>
