<svg width="250" height="250" viewBox="0 0 250 250" fill="none" xmlns="http://www.w3.org/2000/svg">
<path d="M247.573 125.001C247.573 192.695 192.695 247.573 125.001 247.573C57.3064 247.573 6.34764 196.53 2.63405 132.173C2.4965 129.798 2.42773 127.408 2.42773 125.001C2.42773 57.3064 57.3064 2.42773 125.001 2.42773C192.695 2.42773 247.573 57.3064 247.573 125.001Z" fill="url(#paint0_linear_118_1525)"/>
<g clip-path="url(#clip0_118_1525)">
<path d="M203.268 100.403C203.038 100.827 203.199 101.437 203.191 101.918C206.111 101.946 208.616 104.962 210.191 107.219C213.706 112.254 214.721 117.786 214.009 123.895C213.698 126.548 212.164 128.834 211.636 131.406C213.485 131.587 214.109 129.496 215.253 128.583L215.47 129.803C217.186 129.044 218.575 131.212 220.082 132.015C210.807 142.821 200.831 129.092 197.638 120.205C194.899 112.585 192.958 91.9926 205.37 92.2349C206.143 92.251 210.44 93.7531 210.416 92.4489C210.412 92.1299 208.874 91.0397 208.415 90.8297C201.77 87.7933 195.567 92.9536 193.936 99.3374C190.779 111.697 195.978 132.124 208.668 137.41C212.096 138.839 214.089 139.183 217.544 137.543C219.341 136.691 222.848 134.224 221.809 131.999L222.083 131.616C223.408 131.216 224.947 130.816 226.336 131.006C226.799 131.071 227.15 130.848 226.924 131.604C225.692 135.771 221.459 140.45 217.25 141.69C212.474 143.095 210.4 141.06 207.033 141.52C205.889 141.678 203.819 142.982 202.454 143.41C199.232 144.416 195.95 144.94 192.785 145.829C191.29 146.249 189.233 147.597 187.879 147.811C186.764 147.989 185.028 147.072 184.424 147.945C184.069 148.457 184.69 154.106 184.666 155.455C184.581 159.993 184.198 164.572 184.227 169.188C184.271 175.612 186.14 189.788 183.119 195.09C182.016 197.028 179.933 198.377 177.896 199.14C169.06 202.439 158.299 204.078 149.121 207.034C148.275 207.304 143.406 208.932 143.16 209.134C141.634 210.405 144.807 216.583 140.172 218.655L104.595 227.001C102.227 226.569 92.9839 226.682 91.8321 224.671C91.3246 223.783 91.5139 221.433 90.5554 221.106C87.4866 221.126 84.4379 220.932 81.3933 220.601C77.217 220.145 65.2116 218.869 62.2394 216.789C59.1786 214.653 58.2483 210.684 58.1879 207.123C57.8778 188.403 59.1988 169.361 59.0095 150.577C58.9733 147.028 58.1597 145.417 59.7183 141.629C60.113 140.672 63.2301 136.554 63.0207 136.263C58.498 135.694 55.4735 136.053 51.3778 133.602C26.046 118.436 46.0577 46.4622 81.357 59.9364C84.7319 61.2245 87.4423 63.7885 90.8091 64.3861C92.8792 41.1889 111.944 10.9457 138.13 13.1099C147.401 13.8771 160.804 22.4817 165.391 30.5977C176.426 50.1245 166.829 79.4915 152.846 95.2754C153.112 95.7397 153.442 95.7276 153.861 95.8608C158.48 97.3508 163.885 98.0614 168.532 99.725C169.382 100.028 171.488 101.498 171.899 101.465C172.769 101.393 174.138 99.5191 175.777 99.2809C176.913 99.1153 177.549 99.8704 178.455 99.9188C180.038 99.9956 180.171 98.4733 181.065 97.7384C184.625 94.7989 189.313 93.3049 193.397 91.5283C194.69 90.963 196.075 89.4771 197.416 88.6937C202.656 85.6492 206.473 85.8713 211.777 88.6735C212.442 89.0248 215.027 90.1554 214.858 90.8297C214.697 91.4637 209.333 94.8756 208.459 95.7236C207.585 96.5715 207.009 97.9928 206.208 98.7156C205.648 99.2163 203.409 100.153 203.268 100.407V100.403ZM109.081 29.3985C94.2525 45.0329 82.9881 87.5874 106.516 100.129C140.889 118.448 175.608 47.2456 149.02 21.981C136.749 10.3198 118.956 18.989 109.081 29.3985ZM167.332 59.5367C168.057 53.6657 168.52 48.4044 167.147 42.5698C166.929 41.6411 166.591 39.8523 165.729 39.3517C167.425 45.8364 167.425 51.5297 166.917 58.1154C166.885 58.5434 166.663 59.6497 167.332 59.5407V59.5367ZM70.6081 61.6646C65.9888 61.9392 59.5129 65.8882 56.1783 69.0255C43.7057 80.7473 34.3986 123.903 55.393 131.196C74.4623 137.818 86.4959 108.6 88.3525 94.0156C89.8144 82.5159 85.9804 60.7521 70.6081 61.6646ZM190.288 115.258C189.905 107.78 190.304 100.573 192.704 93.4583C190.05 95.4692 186.434 97.8636 185.894 101.368C185.829 101.784 185.624 102.451 186.26 102.337C186.031 101.376 189.148 99.1476 189.486 99.5151C189.736 102.624 184.758 102.111 185.258 104.76L189.083 102.342C189.961 106.206 186.526 105.342 184.843 106.763C184.251 107.264 183.747 108.604 184.815 108.354L189.088 106.783C189.804 109.464 185.004 109.069 184.662 111.624L189.088 110.013C189.579 112.577 187.924 112.476 186.26 113.45C186.027 113.587 184.702 113.841 185.467 114.451C186.272 115.097 189.015 112.343 189.49 112.836L190.296 115.258H190.288ZM183.441 98.3037C182.942 97.7425 181.142 100.533 180.948 100.848C176.011 109.04 178.057 121.747 182.426 129.803C184.871 134.309 190.296 142.336 195.926 141.904C196.168 140.806 195.596 141.218 195.128 140.907C192.168 138.948 190.272 137.531 188.109 134.604C180.167 123.847 179.128 110.777 183.441 98.2997V98.3037ZM85.9884 124.146C89.021 122.676 90.7407 119.276 92.0938 116.341C94.5022 111.116 96.3708 105.2 97.2568 99.5151L85.9884 124.146ZM61.8246 148.373C63.4838 146.927 63.806 144.387 65.284 142.76C66.5969 141.31 69.2952 140.168 71.0753 139.279C86.0529 131.777 102.372 125.187 117.671 118.162C125.98 114.346 134.977 109.238 143.301 105.903C148.786 103.702 150.486 106.315 150.844 111.414C152.173 130.227 151.005 152.338 151.251 171.574C151.396 182.847 151.96 187.467 140.667 191.69C120.076 199.394 97.4703 203.949 76.4155 210.45C74.6677 210.991 63.4476 214.423 63.4436 215.606C63.8262 216.196 64.2168 216.159 64.8249 216.232C68.812 216.688 73.7092 214.27 77.5351 213.188C98.8718 207.155 121.84 201.74 142.689 194.525C149.451 192.187 153.808 188.945 154.449 181.281C155.818 164.863 154.304 144.686 154.034 128.006C153.925 121.19 154.747 112.719 154.05 106.186C153.365 99.7654 147.014 100.48 142.375 102.156C134.779 104.902 126.173 110.385 118.694 113.946C103.878 120.992 88.4652 127.13 73.7615 134.309C67.7045 137.265 60.7976 140.232 61.8286 148.385L61.8246 148.373ZM176.998 102.342C173.925 101.901 172.165 105.721 171.388 108.221C168.001 119.098 171.669 134.357 180.65 141.682C182.475 143.168 186.695 145.885 188.673 143.725C176.112 137.794 170.05 119.926 174.698 107.094C175.362 105.253 176.675 104.09 177.002 102.342H176.998ZM119.008 107.994C113.475 108.039 108.747 105.293 103.709 103.549L97.2609 118.893C97.5307 119.151 100.314 118.101 100.877 117.879C105.36 116.094 112.951 112.921 117.015 110.639C118.05 110.058 119.198 109.359 119.008 107.994ZM168.943 105.168C165.806 105.128 164.018 110.159 163.426 112.755C161.045 123.233 164.912 141.076 175.375 146.164C176.518 146.721 179.253 148.046 179.817 146.152C167.247 139.227 162.926 122.284 167.441 109.105C167.92 107.704 169.265 106.832 168.943 105.164V105.168ZM206.659 108.943C204.971 107.151 199.112 103.747 198.354 107.801C197.774 110.906 198.693 117.661 201.141 119.926C203.211 121.836 207.984 121.711 210.448 120.665C210.537 116.781 209.393 111.847 206.659 108.943ZM141.602 113.199C143.639 113.769 144.602 111.342 143.603 109.779L142.246 109.67L141.356 110.413L141.602 113.199ZM160.083 132.625C160.059 130.538 160.123 128.442 160.103 126.35C160.095 125.393 159.656 124.521 159.668 123.56C159.7 121.134 160.788 118.206 160.486 115.666C156.531 118.953 156.43 129.076 160.083 132.625ZM69.0697 156.444C69.6496 156.957 81.949 152.168 83.6727 151.506C97.8247 146.071 111.679 139.901 125.847 134.434C128.005 133.602 134.268 131.305 135.806 130.291C136.447 129.871 136.894 129.75 136.72 128.793C136.277 128.131 136.124 128.293 135.504 128.341C134.147 128.45 131.139 129.682 129.665 130.194C117.522 134.422 105.855 139.986 94.0229 144.932C87.7363 147.561 81.0389 149.653 74.8288 152.338C74.2287 152.596 68.1636 155.649 69.0617 156.444H69.0697ZM136.728 135.847C136.749 134.285 135.311 134.612 134.219 134.741C131.59 135.06 123.591 138.193 120.639 139.3C105.98 144.783 91.2843 151.562 76.7176 157.446C75.3604 157.995 67.4467 159.783 69.0778 162.097L136.733 135.847H136.728ZM205.193 139.885C203.497 136.845 200.545 137.2 197.545 137.874C198.399 141.298 202.579 140.446 205.193 139.885ZM136.724 140.297L133.422 140.414C113.749 147.67 92.6496 154.599 73.5118 163.119C71.8083 163.878 70.1088 164.722 68.675 165.933C69.3597 166.991 70.7773 166.034 71.6915 165.735C89.0291 160.143 106.544 151.389 123.857 145.356C126.515 144.428 134.437 142.877 136.132 141.512C136.559 141.169 136.849 140.895 136.724 140.297ZM68.671 171.788C79.9112 168.227 90.4668 163.026 101.486 158.863C112.504 154.7 124.465 150.763 136.048 147.08C137.312 146.418 136.873 145.082 135.432 145.215C134.119 145.336 131.404 146.237 129.971 146.64C121.844 148.938 112.52 152.782 104.522 155.851C93.9383 159.913 80.8858 164.532 70.8095 169.292C69.7101 169.809 68.4415 170.29 68.671 171.788ZM137.127 150.795C134.393 150.646 131.759 151.566 129.169 152.301C117.236 155.673 105.529 160.627 94.031 165.121C86.0408 168.247 78.0224 171.324 70.1128 174.655L69.0657 177.437C69.3557 177.667 70.6404 176.985 71.027 176.783C79.146 172.632 88.5901 168.848 97.1481 165.42C109.846 160.333 123.753 156.973 136.527 152.007L137.123 150.791L137.127 150.795ZM136.728 157.651C136.886 156.21 136.33 155.939 135.021 156.117C132.609 156.448 127.063 158.419 124.429 159.254C112.158 163.163 100.265 167.895 88.3927 172.789C82.3115 175.297 75.1187 177.073 69.8993 181.301C69.4281 181.68 68.9247 181.959 69.0697 182.686C69.7664 182.787 70.3343 182.609 70.9746 182.379C73.8461 181.333 77.6922 178.963 80.7529 177.647C98.9926 169.809 117.977 164.124 136.724 157.647L136.728 157.651ZM175.789 165.327L175.399 163.098L165.322 160.89L165.359 162.868L175.785 165.327H175.789ZM136.728 162.101C133.434 161.657 130.684 163.583 127.671 164.528C109.278 170.306 89.7942 176.161 72.4204 184.64C71.1881 185.242 69.2187 185.928 69.0697 187.535C79.581 183.825 89.7218 179.084 100.273 175.418C112.287 171.243 124.82 168.436 136.479 163.341L136.728 162.101ZM174.859 168.687C173.913 167.629 166.003 165.477 165.326 166.139L165.733 167.544L175.391 170.173C175.455 169.628 175.209 169.078 174.859 168.687ZM69.0697 191.977C69.4362 192.373 78.1714 189.179 79.3474 188.759C95.0781 183.126 111.224 178.729 126.866 173.007C128.577 172.381 135.19 169.91 135.943 168.784C136.265 168.303 136.422 167.944 136.318 167.346C133.092 168.36 130.067 169.91 126.866 170.988C108.219 177.263 89.8224 182.036 71.4901 189.764C70.8256 190.043 68.1475 190.988 69.0697 191.977ZM174.988 173.403L174.94 172.038L174.323 171.445C171.971 171.747 168.363 170.08 166.297 170.209C165.624 170.253 165.33 170.75 164.928 171.182C164.908 172.462 173.59 173.613 174.988 173.403ZM135.118 174.622C129.826 175.668 124.208 176.924 119.008 178.454C105.408 182.46 91.9086 187.002 78.7272 192.175C76.4679 193.059 70.8981 194.331 69.3194 195.583C68.9368 195.886 68.9851 196.729 69.0697 196.822C69.855 197.658 88.429 190.653 90.9098 189.853C102.806 186.021 115.122 182.872 126.874 178.668C129.536 177.715 132.939 176.31 135.118 174.622ZM175.306 176.714L165.322 175.426C165.27 176.165 165.177 176.661 166.011 176.956C167.336 177.421 173.127 178.676 174.404 178.672C174.992 178.672 175.431 178.672 175.717 178.063L175.306 176.714ZM165.351 181.858C168.057 181.81 171.52 183.477 174.041 183.477C175.669 183.477 176.035 182.165 174.42 181.442C173.506 181.034 165.637 179.936 165.318 180.271L165.347 181.858H165.351ZM178.21 196.427C170.723 195.086 163.293 192.562 155.661 192.389L160.405 194.291C163.373 195.151 174.819 198.223 177.122 197.549C177.457 197.452 178.367 196.637 178.21 196.427ZM126.97 205.403C122.971 203.65 124.755 210.971 123.603 211.815L94.0793 220.69L94.0431 223.884C94.6673 224.501 105.686 220.262 107.418 219.729C114.176 217.653 121.421 216.345 127.675 213.054C128.843 214.892 139.6 217.73 140.744 217.237C140.981 217.137 141.67 216.365 141.565 216.22C137.083 214.625 132.246 212.788 127.47 212.582L126.974 205.407L126.97 205.403Z" fill="black"/>
<path d="M216.876 128.582L216.465 126.97L215.668 127.774C218.362 119.929 216.312 111.025 211.036 104.754C210.283 103.858 205.628 100.014 206.401 99.1096C211.83 97.1512 217.057 107.201 218.499 111.405C220.065 115.976 220.879 125.234 216.876 128.582Z" fill="black"/>
<path d="M147.888 31.759C151.336 30.7172 152.488 36.1077 153.051 38.5304C154.819 46.1174 154.505 58.0209 150.893 65.0629C149.362 68.0428 148.783 68.4587 145.718 67.2837C143.676 66.5003 136.741 62.9309 135.323 61.554C133.451 59.737 135.013 57.7342 135.13 55.3196C135.231 53.2159 134.308 50.2118 134.804 48.524C135.029 47.7487 143.197 36.988 144.393 35.5303C145.017 34.7672 147.228 31.9649 147.888 31.763V31.759ZM151.223 48.633C151.348 45.3583 151.126 42.0393 150.301 38.8615C150.204 38.4941 148.944 33.8587 148.005 34.9085L151.219 48.633H151.223Z" fill="black"/>
<path d="M145.452 71.7898C148.823 75.3067 142.468 84.3675 139.942 87.1859C137.574 89.8267 127.78 99.1096 125.158 93.1457C124.264 91.1107 124.449 80.2974 124.651 77.5113C124.768 75.9164 125.001 73.5018 125.855 72.2581C126.471 71.3617 130.768 67.3199 131.67 66.7829C132.121 66.5164 132.311 66.3831 132.887 66.375C134.155 66.3589 144.554 70.857 145.452 71.7898Z" fill="black"/>
<path d="M100.769 51.9207C102.085 51.5492 106.399 53.7579 107.744 54.4847C108.924 55.1227 112.271 56.8468 112.383 58.1106L111.981 69.6548C109.037 73.3655 106.669 78.3845 103.696 81.9418C101.675 84.3645 99.8302 86.238 97.9051 82.5152C95.1142 77.1126 96.266 59.4512 99.1133 53.9275C99.4113 53.3501 100.16 52.0903 100.765 51.9207H100.769ZM101.288 78.3159V61.7608C101.288 61.454 102.44 59.3664 101.292 59.1403C99.4919 65.5321 99.9027 72.3722 100.487 78.9215C100.74 78.9336 101.252 78.4531 101.288 78.3159Z" fill="black"/>
<path d="M114.456 72.9458C116.043 72.4694 120.401 73.4304 120.932 75.1707C121.77 77.9083 121.685 86.9086 121.44 90.0379C121.226 92.7432 120.34 97.3706 117.175 97.8753C112.386 98.6384 106.877 96.4499 104.11 92.4485C102.149 89.6139 104.054 87.0903 105.556 84.607C106.631 82.8264 113.156 73.3416 114.464 72.9458H114.456Z" fill="black"/>
<path d="M129.777 21.2779C133.003 20.7328 137.22 21.2779 140.349 22.1944C147.357 24.2335 146.225 26.527 142.858 31.974C141.718 33.8153 133.229 45.5209 132.037 45.751C130.671 45.2059 129.314 44.7618 127.885 44.3822C126.809 44.0955 125.186 44.6003 125.045 43.1911C125.432 37.6795 124.304 31.2836 125.561 25.9415C126.157 23.4018 126.958 21.7584 129.773 21.2819L129.777 21.2779ZM141.445 28.9739C139.733 26.9833 131.779 23.8338 129.479 26.2282C132.77 26.3171 135.247 26.8056 138.07 28.5136C138.976 29.0628 140.031 30.472 141.002 30.8273C141.879 31.1463 141.956 29.5715 141.441 28.9739H141.445ZM143.974 28.445C145.407 26.9712 138.863 25.0855 137.937 25.6266L143.974 28.445ZM139.544 33.2904C140.414 32.503 136.068 30.1005 135.512 29.8663C133.048 28.8286 130.941 28.6751 128.267 28.8568C128.408 29.6442 129.117 29.515 129.661 29.6765C131.34 30.1812 133.003 30.3629 134.707 31.0776C136.41 31.7923 137.679 33.2702 139.544 33.2904Z" fill="black"/>
<path d="M119.693 26.1036C120.821 26.0875 121.328 27.7309 121.433 28.6434C121.783 31.6556 122.005 37.7446 121.848 40.7851C121.771 42.2468 121.372 43.652 121.34 45.1217C119.89 46.5511 114.868 52.5473 113.189 52.6361C111.248 52.7411 103.266 48.7881 102.903 46.8055C102.44 44.2899 104.796 40.4379 106.113 38.3342C108.207 34.9868 115.646 26.1682 119.697 26.1077L119.693 26.1036ZM120.615 29.2572C119.886 28.49 112.391 35.221 111.55 36.1134C108.912 38.9116 106.032 42.6829 105.718 46.6157C108.191 43.9144 109.335 40.1391 111.948 37.3207C114.039 35.0635 118.424 32.8468 120.039 30.8965C120.49 30.3514 120.752 30.0284 120.615 29.2572Z" fill="black"/>
<path d="M127.748 60.7949H128.396C130.877 61.4087 128.746 68.2851 125.742 67.1424L124.711 66.1248C124.755 63.8233 125.891 62.0749 127.748 60.799V60.7949Z" fill="black"/>
<path d="M116.676 56.6277C115.765 55.0489 118.645 50.7769 120.409 50.252C122.35 52.7392 120.622 55.598 118.746 57.4958L116.672 56.6277H116.676Z" fill="black"/>
<path d="M126.551 47.9033C127.252 47.758 127.908 47.7135 128.509 48.1981C130.075 49.4579 128.275 53.532 126.459 53.528C123.144 53.2252 123.881 48.4565 126.551 47.9033Z" fill="black"/>
<path d="M124.989 56.3692C125.376 58.3397 124.945 60.7785 122.923 61.6587C118.706 63.4919 121.119 53.9102 124.989 56.3692Z" fill="black"/>
<path d="M132.238 53.5442C132.729 54.3234 132.447 58.8983 130.268 58.1594C125.194 56.4393 130.901 51.4324 132.238 53.5442Z" fill="black"/>
<path d="M116.073 59.6132C119.814 58.5069 118.123 64.7816 115.988 64.8018C113.584 64.1477 113.894 60.2593 116.073 59.6132Z" fill="black"/>
<path d="M118.725 64.914C122.044 62.1401 122.036 70.0865 118.786 70.038C117.134 70.0138 117.589 65.8629 118.725 64.914Z" fill="black"/>
<path d="M82.2213 76.1348C83.937 75.6745 84.7505 80.1322 84.9881 81.3314C85.5841 84.3396 85.8137 87.7798 85.5922 90.8486C85.4392 92.9926 83.5745 103.519 82.5395 104.751C81.1098 106.455 76.5388 103.233 75.1373 102.106C71.0254 98.7909 72.8297 99.1624 73.1035 94.8864C73.2284 92.924 72.8216 91.2281 72.7652 89.3223L82.2173 76.1307L82.2213 76.1348Z" fill="black"/>
<path d="M56.4636 93.9786C57.559 95.3635 56.4193 100.213 56.2622 102.139C56.1978 102.934 56.7415 103.459 56.4112 104.772C56.1132 105.959 49.8991 115.012 48.9285 115.468C47.7606 116.013 47.2129 115.549 46.5766 114.6C44.3817 111.309 45.5254 100.645 46.2342 96.6072C46.4557 95.3353 47.2652 90.6554 48.4009 90.284C49.6575 89.8721 55.634 92.9328 56.4676 93.9826L56.4636 93.9786Z" fill="black"/>
<path d="M70.5631 104.008C71.7673 103.697 79.0487 108.126 79.4595 109.491C80.2166 112.023 77.1276 117.47 75.5046 119.493C74.1877 121.132 67.9091 128.146 66.0687 124.932C65.0055 123.074 65.0981 110.488 66.2378 108.587C66.5882 108.005 70.1 104.129 70.5631 104.008Z" fill="black"/>
<path d="M70.9894 65.2663C73.7924 64.9554 80.8604 68.2826 80.7355 71.4119C80.6912 72.5465 79.5112 74.9934 78.9031 76.0594C78.295 77.1254 72.0808 85.302 71.4767 85.5806C70.3048 86.1216 67.6427 85.0718 66.8695 84.1593C66.052 83.1983 66.201 81.5347 66.2372 80.3193C66.3258 77.4646 66.6722 70.7456 67.4857 68.2462C68.0173 66.6109 69.2537 65.4642 70.9935 65.2704L70.9894 65.2663Z" fill="black"/>
<path d="M63.7803 68.8792C64.7308 69.4808 63.8367 72.489 63.8166 73.454C63.7401 76.7004 64.3643 81.8769 63.4098 84.7559C62.9749 86.0641 59.6282 90.5057 58.3878 90.6389C57.534 90.7318 50.4983 86.9807 50.2244 86.5163C48.7706 84.021 54.3766 75.5052 56.1728 73.4661C57.3125 72.17 62.0204 67.7647 63.7844 68.8832L63.7803 68.8792Z" fill="black"/>
<path d="M58.4819 108.046C59.3559 107.819 62.7831 109.37 63.0207 110.626C63.4597 112.947 63.2543 121.685 62.9764 124.294C62.5576 128.291 60.7251 128.743 56.8791 128.085C54.515 127.681 50.3911 124.326 50.1414 121.891C49.8675 119.23 56.2347 108.623 58.4779 108.046H58.4819Z" fill="black"/>
<path d="M67.9129 98.2455C67.2323 96.6384 67.1035 94.7205 68.4566 93.4526C71.896 90.2264 72.0208 99.582 67.9129 98.2455Z" fill="black"/>
<path d="M60.0756 96.7437C62.5282 96.0936 61.5536 102.796 58.8472 101.904C57.3491 101.411 58.513 97.1596 60.0756 96.7437Z" fill="black"/>
<path d="M66.7287 87.8845C68.0416 87.4443 69.6324 88.1025 69.4914 89.5965C66.8817 94.3167 63.8491 92.5037 66.7287 87.8845Z" fill="black"/>
<path d="M63.0276 99.5101C62.5685 98.0767 63.3176 94.689 65.2306 95.0685C66.8254 95.3875 65.4964 100.358 63.0276 99.5101Z" fill="black"/>
<path d="M63.3909 90.272C63.8661 91.5318 62.8593 94.7539 61.2283 94.2613C59.7663 92.945 61.0027 90.9988 62.215 90.0176L63.3909 90.2679V90.272Z" fill="black"/>
<path d="M69.0372 102.22C69.0372 105.599 65.2193 103.193 65.626 101.36C66.5322 99.3971 69.0372 100.253 69.0372 102.22Z" fill="black"/>
<path d="M62.5778 105.947C58.3693 106.229 60.5843 101.134 63.9391 102.632C65.6426 103.391 64.0156 105.85 62.5778 105.947Z" fill="black"/>
</g>
<defs>
<linearGradient id="paint0_linear_118_1525" x1="2.42773" y1="125.001" x2="247.573" y2="125.001" gradientUnits="userSpaceOnUse">
<stop stop-color="#003DD4"/>
<stop offset="0.73" stop-color="#5ABAD6"/>
<stop offset="1" stop-color="#C497FF"/>
</linearGradient>
<clipPath id="clip0_118_1525">
<rect width="187" height="214" fill="white" transform="translate(40 13)"/>
</clipPath>
</defs>
</svg>
