<svg width="44" height="43" viewBox="0 0 44 43" fill="none" xmlns="http://www.w3.org/2000/svg">
<path d="M12.4167 19.625C11.3581 19.625 10.5 20.4644 10.5 21.5C10.5 22.5356 11.3581 23.375 12.4167 23.375H31.5833C32.6419 23.375 33.5 22.5356 33.5 21.5C33.5 20.4644 32.6419 19.625 31.5833 19.625H12.4167Z" fill="white"/>
<path fill-rule="evenodd" clip-rule="evenodd" d="M21.9998 0.875C10.3558 0.875 0.916504 10.1091 0.916504 21.5C0.916504 32.8908 10.3558 42.125 21.9998 42.125C33.6438 42.125 43.0832 32.8908 43.0832 21.5C43.0832 10.1091 33.6438 0.875 21.9998 0.875ZM4.74984 21.5C4.74984 12.1802 12.4729 4.625 21.9998 4.625C31.5268 4.625 39.2498 12.1802 39.2498 21.5C39.2498 30.8199 31.5268 38.375 21.9998 38.375C12.4729 38.375 4.74984 30.8199 4.74984 21.5Z" fill="white"/>
</svg>
