<svg width="88" height="88" viewBox="0 0 88 88" fill="none" xmlns="http://www.w3.org/2000/svg">
<path d="M44 0C19.7 0 0 19.7 0 44C0 68.3 19.7 88 44 88C68.3 88 88 68.3 88 44C88 19.7 68.3 0 44 0ZM44 80.6666C23.75 80.6666 7.33339 64.25 7.33339 44C7.33339 23.75 23.75 7.33339 44 7.33339C64.25 7.33339 80.6666 23.75 80.6666 44C80.6666 64.25 64.25 80.6666 44 80.6666Z" fill="#4096DF"/>
<path d="M64.5335 41.0666L35.2001 19.0666C32.7829 17.2537 29.3335 18.9784 29.3335 22V66C29.3335 69.0216 32.783 70.7463 35.2001 68.9334L64.5335 46.9334C66.4889 45.4666 66.4889 42.5334 64.5335 41.0666ZM36.6667 58.6666V29.3334L56.2223 44L36.6667 58.6666Z" fill="#4096DF"/>
</svg>
