<svg width="43" height="42" viewBox="0 0 43 42" fill="none" xmlns="http://www.w3.org/2000/svg">
<path d="M21.5 10C22.5356 10 23.375 10.8208 23.375 11.8333V19.1667H30.875C31.9106 19.1667 32.75 19.9875 32.75 21C32.75 22.0126 31.9106 22.8333 30.875 22.8333H23.375V30.1667C23.375 31.1792 22.5356 32 21.5 32C20.4644 32 19.625 31.1792 19.625 30.1667V22.8333H12.125C11.0895 22.8333 10.25 22.0126 10.25 21C10.25 19.9875 11.0895 19.1667 12.125 19.1667H19.625V11.8333C19.625 10.8208 20.4644 10 21.5 10Z" fill="white"/>
<path fill-rule="evenodd" clip-rule="evenodd" d="M0.875 21C0.875 9.86226 10.1091 0.833328 21.5 0.833328C32.8908 0.833328 42.125 9.86226 42.125 21C42.125 32.1377 32.8908 41.1667 21.5 41.1667C10.1091 41.1667 0.875 32.1377 0.875 21ZM21.5 4.49999C12.1802 4.49999 4.625 11.8873 4.625 21C4.625 30.1128 12.1802 37.5 21.5 37.5C30.8199 37.5 38.375 30.1128 38.375 21C38.375 11.8873 30.8199 4.49999 21.5 4.49999Z" fill="white"/>
</svg>
